<svg width="30" height="29" viewBox="0 0 30 29" fill="none" xmlns="http://www.w3.org/2000/svg">
<g clip-path="url(#clip0_1_6430)">
<path d="M3.88235 24.6468C4.11765 24.6468 4.58824 24.6468 4.82353 24.6468H25.4706C25.7059 24.6468 25.8824 24.6468 26.2353 24.6468C26.5882 24.6468 26.9412 24.9409 26.9412 25.6468C26.9412 26.3527 26.4118 26.4703 26.3529 26.4703C26 26.4703 25.5882 26.4703 25.3529 26.4703H4.64706C4.41176 26.4703 4.29412 26.4703 4 26.4703C3.35294 26.4703 3 26.2938 3 25.5879C3 24.8821 3.52941 24.6468 3.88235 24.6468ZM16.2941 17.5879L22.4118 9.52912C22.8235 9.11736 23.4118 8.99971 23.7059 9.29383L23.8824 9.4703C24.3529 9.88207 24.1176 10.4115 23.8824 10.6468L15.6471 20.7056C15.4706 20.8821 15.2353 20.8821 15.0588 20.7056L6.70588 10.6468C6.41176 10.3527 6.35294 9.88207 6.76471 9.4703C7.17647 9.05854 7.70588 9.17618 8.11765 9.58795L14.5294 17.7056V-1.17676H15.0588H16.2353" fill="white"/>
</g>
<defs>
<clipPath id="clip0_1_6430">
<rect width="30" height="28.2353" fill="white"/>
</clipPath>
</defs>
</svg>
