<?xml version="1.0" encoding="utf-8"?>
<!-- Generator: Adobe Illustrator 26.5.0, SVG Export Plug-In . SVG Version: 6.00 Build 0)  -->
<svg version="1.1" id="Stock_cut" xmlns="http://www.w3.org/2000/svg" xmlns:xlink="http://www.w3.org/1999/xlink" x="0px" y="0px"
	 viewBox="0 0 800 800" style="enable-background:new 0 0 800 800;" xml:space="preserve">
<g>
	<path d="M400.5,780.7c-8.2,0-16.1-3.3-21.8-9.2L75.4,460.9c-47-48.1-73.9-116-73.9-186.2c0-67.9,24.2-131.8,68.1-180
		c44.7-49,104.3-76,167.9-76h4.2c31.5,0,62.2,6.7,91.3,19.9c25,11.4,47.7,27,67.6,46.7c19.9-19.7,42.6-35.4,67.6-46.7
		c29-13.2,59.8-19.9,91.3-19.9h4.2c63.6,0,123.2,27,167.9,76c43.9,48.2,68.1,112.2,68.1,180c0,70.2-27,138-73.9,186.2L422.3,771.5
		C416.6,777.4,408.7,780.7,400.5,780.7z M237.5,79.7c-96.5,0-175,87.5-175,195c0,54.4,20.6,106.7,56.6,143.6l281.4,288.3
		l281.4-288.3l21.8,21.3l-21.8-21.3c36-36.8,56.6-89.2,56.6-143.6c0-107.5-78.5-195-175-195h-4.2c-46.2,0-89.8,19.9-122.8,56.1
		L423,150.6c-5.8,6.3-14,10-22.5,10s-16.8-3.6-22.5-10l-13.5-14.8c-33-36.2-76.6-56.1-122.8-56.1H237.5z"/>
</g>
</svg>
