<svg width="10" height="10" viewBox="0 0 10 10" fill="none" xmlns="http://www.w3.org/2000/svg">
<path d="M9.0623 5.62497C9.06127 6.28769 8.79755 6.92298 8.32893 7.39159C7.86031 7.86021 7.22503 8.12394 6.5623 8.12497H3.1248C3.04192 8.12497 2.96244 8.09205 2.90383 8.03344C2.84523 7.97484 2.8123 7.89535 2.8123 7.81247C2.8123 7.72959 2.84523 7.6501 2.90383 7.5915C2.96244 7.53289 3.04192 7.49997 3.1248 7.49997H6.5623C7.05959 7.49997 7.5365 7.30243 7.88813 6.95079C8.23976 6.59916 8.4373 6.12225 8.4373 5.62497C8.4373 5.12769 8.23976 4.65078 7.88813 4.29914C7.5365 3.94751 7.05959 3.74997 6.5623 3.74997H3.4373V5.31247C3.4375 5.37416 3.41942 5.43454 3.38536 5.48598C3.3513 5.53742 3.30277 5.57762 3.2459 5.60153C3.20735 5.61684 3.16628 5.62479 3.1248 5.62497C3.04182 5.62462 2.96214 5.59246 2.90215 5.53513L1.02715 3.66013C0.968467 3.60088 0.935547 3.52086 0.935547 3.43747C0.935547 3.35408 0.968467 3.27406 1.02715 3.21481L2.90215 1.33981C2.94733 1.29742 3.00359 1.26868 3.06443 1.25693C3.12526 1.24518 3.18818 1.25089 3.2459 1.27341C3.30277 1.29731 3.3513 1.33752 3.38536 1.38896C3.41942 1.4404 3.4375 1.50077 3.4373 1.56247V3.12497H6.5623C7.22503 3.126 7.86031 3.38973 8.32893 3.85834C8.79755 4.32696 9.06127 4.96225 9.0623 5.62497V5.62497Z" fill="#FEFEFE"/>
</svg>
