<svg width="78" height="21" viewBox="0 0 78 21" fill="none" xmlns="http://www.w3.org/2000/svg">
<path d="M5.47157 2.41406L0 9.01213H2.57486V18.346C2.57486 20.1484 4.29143 20.7063 5.14971 20.7599H8.69014V18.346H6.27621C5.6325 18.2172 5.47157 17.4341 5.47157 17.0586V9.01213H8.85107V6.75913H5.47157V2.41406Z" fill="#D8D8D8"/>
<path d="M16.0854 6.75925H13.1887V20.5991H16.0854V6.75925Z" fill="#D8D8D8"/>
<path d="M16.2469 1.77042C16.2469 2.6592 15.5264 3.3797 14.6376 3.3797C13.7488 3.3797 13.0283 2.6592 13.0283 1.77042C13.0283 0.881634 13.7488 0.161133 14.6376 0.161133C15.5264 0.161133 16.2469 0.881634 16.2469 1.77042Z" fill="#D8D8D8"/>
<path d="M24.9278 0H21.8701V20.5988H24.9278V14.0008L30.3993 20.5988H34.4225L28.1463 13.518L33.9398 6.759H30.3993L24.9278 13.518V0Z" fill="#D8D8D8"/>
<path d="M41.9765 2.41406L36.5049 9.01213H39.0797V18.346C39.0797 20.1484 40.7963 20.7063 41.6546 20.7599H45.195V18.346H42.7811C42.1374 18.2172 41.9765 17.4341 41.9765 17.0586V9.01213H45.3559V6.75913H41.9765V2.41406Z" fill="#D8D8D8"/>
<path d="M52.4286 6.75925H49.5319V20.5991H52.4286V6.75925Z" fill="#D8D8D8"/>
<path d="M52.5897 1.77042C52.5897 2.6592 51.8692 3.3797 50.9804 3.3797C50.0916 3.3797 49.3711 2.6592 49.3711 1.77042C49.3711 0.881634 50.0916 0.161133 50.9804 0.161133C51.8692 0.161133 52.5897 0.881634 52.5897 1.77042Z" fill="#D8D8D8"/>
<path d="M62.2352 2.41406L56.7637 9.01213H59.3385V18.346C59.3385 20.1484 61.0551 20.7063 61.9134 20.7599H65.4538V18.346H63.0399C62.3962 18.2172 62.2352 17.4341 62.2352 17.0586V9.01213H65.6147V6.75913H62.2352V2.41406Z" fill="#D8D8D8"/>
<path d="M77.7035 7.15035V9.26802C76.8984 8.76382 74.8052 7.99742 72.8729 8.9655C70.9406 9.93358 72.0678 11.0832 72.8729 11.537C74.0805 12.2176 76.8279 13.2613 77.5525 14.7135C78.2771 16.1656 78.0054 17.5874 77.5525 18.3437C76.6468 19.8564 75.2882 20.4614 73.4767 20.4614C71.6652 20.4614 69.904 19.7555 69.0989 19.4026V16.9824C70.6688 18.1925 72.8728 18.2933 73.7786 18.1925C74.3825 18.1421 75.741 17.9202 75.741 16.8311C75.741 15.4698 74.2314 14.5622 73.3257 14.2597C71.6652 13.6546 70.9104 13.2008 70.0046 12.4445C69.0988 11.3857 68.9479 11.2344 69.0989 9.72181C69.207 8.63813 70.5078 7.55372 71.2123 7.15035C71.6148 6.89825 72.8426 6.39404 74.5334 6.39404C76.2241 6.39404 77.3513 6.89825 77.7035 7.15035Z" fill="#D8D8D8"/>
</svg>
