<svg width="36" height="36" viewBox="0 0 36 36" fill="none" xmlns="http://www.w3.org/2000/svg">
<g filter="url(#filter0_d_1_6427)">
<path d="M14.9929 14.2827C14.9588 13.9389 14.8125 13.6719 14.554 13.4815C14.2955 13.2912 13.9446 13.196 13.5014 13.196C13.2003 13.196 12.946 13.2386 12.7386 13.3239C12.5313 13.4062 12.3722 13.5213 12.2614 13.669C12.1534 13.8168 12.0994 13.9844 12.0994 14.1719C12.0938 14.3281 12.1264 14.4645 12.1974 14.581C12.2713 14.6974 12.3722 14.7983 12.5 14.8835C12.6278 14.9659 12.7756 15.0384 12.9432 15.1009C13.1108 15.1605 13.2898 15.2116 13.4801 15.2543L14.2642 15.4418C14.6449 15.527 14.9943 15.6406 15.3125 15.7827C15.6307 15.9247 15.9063 16.0994 16.1392 16.3068C16.3722 16.5142 16.5526 16.7585 16.6804 17.0398C16.8111 17.321 16.8778 17.6435 16.8807 18.0071C16.8778 18.5412 16.7415 19.0043 16.4716 19.3963C16.2045 19.7855 15.8182 20.0881 15.3125 20.304C14.8097 20.517 14.2031 20.6236 13.4929 20.6236C12.7884 20.6236 12.1747 20.5156 11.652 20.2997C11.1321 20.0838 10.7259 19.7642 10.4332 19.3409C10.1435 18.9148 9.99148 18.3878 9.97727 17.7599H11.7628C11.7827 18.0526 11.8665 18.2969 12.0142 18.4929C12.1648 18.6861 12.3651 18.8324 12.6151 18.9318C12.8679 19.0284 13.1534 19.0767 13.4716 19.0767C13.7841 19.0767 14.0554 19.0312 14.2855 18.9403C14.5185 18.8494 14.6989 18.723 14.8267 18.5611C14.9545 18.3991 15.0185 18.2131 15.0185 18.0028C15.0185 17.8068 14.9602 17.642 14.8438 17.5085C14.7301 17.375 14.5625 17.2614 14.3409 17.1676C14.1222 17.0739 13.8537 16.9886 13.5355 16.9119L12.5852 16.6733C11.8494 16.4943 11.2685 16.2145 10.8423 15.8338C10.4162 15.4531 10.2045 14.9403 10.2074 14.2955C10.2045 13.767 10.3452 13.3054 10.6293 12.9105C10.9162 12.5156 11.3097 12.2074 11.8097 11.9858C12.3097 11.7642 12.8778 11.6534 13.5142 11.6534C14.1619 11.6534 14.7273 11.7642 15.2102 11.9858C15.696 12.2074 16.0739 12.5156 16.3438 12.9105C16.6136 13.3054 16.7528 13.7628 16.7614 14.2827H14.9929ZM21.2156 20.5H18.1218V11.7727H21.2411C22.119 11.7727 22.8746 11.9474 23.5082 12.2969C24.1417 12.6435 24.6289 13.142 24.9698 13.7926C25.3136 14.4432 25.4854 15.2216 25.4854 16.1278C25.4854 17.0369 25.3136 17.8182 24.9698 18.4716C24.6289 19.125 24.1388 19.6264 23.4996 19.9759C22.8633 20.3253 22.1019 20.5 21.2156 20.5ZM19.967 18.919H21.1388C21.6843 18.919 22.1431 18.8224 22.5153 18.6293C22.8903 18.4332 23.1715 18.1307 23.359 17.7216C23.5494 17.3097 23.6445 16.7784 23.6445 16.1278C23.6445 15.483 23.5494 14.956 23.359 14.5469C23.1715 14.1378 22.8917 13.8366 22.5195 13.6435C22.1474 13.4503 21.6886 13.3537 21.1431 13.3537H19.967V18.919Z" fill="white"/>
<rect x="2.5" y="0.5" width="31" height="31" rx="1.5" stroke="#FEFEFE"/>
</g>
<defs>
<filter id="filter0_d_1_6427" x="0" y="0" width="36" height="36" filterUnits="userSpaceOnUse" color-interpolation-filters="sRGB">
<feFlood flood-opacity="0" result="BackgroundImageFix"/>
<feColorMatrix in="SourceAlpha" type="matrix" values="0 0 0 0 0 0 0 0 0 0 0 0 0 0 0 0 0 0 127 0" result="hardAlpha"/>
<feOffset dy="2"/>
<feGaussianBlur stdDeviation="1"/>
<feColorMatrix type="matrix" values="0 0 0 0 0 0 0 0 0 0 0 0 0 0 0 0 0 0 0.25 0"/>
<feBlend mode="normal" in2="BackgroundImageFix" result="effect1_dropShadow_1_6427"/>
<feBlend mode="normal" in="SourceGraphic" in2="effect1_dropShadow_1_6427" result="shape"/>
</filter>
</defs>
</svg>
