<svg width="32" height="32" viewBox="0 0 32 32" fill="none" xmlns="http://www.w3.org/2000/svg">
<path d="M14.724 20.5H13.056V16.924H10.164V20.5H8.496V11.956H10.164V15.448H13.056V11.956H14.724V20.5ZM22.8188 14.344C22.8828 14.76 22.9148 15.388 22.9148 16.228C22.9148 17.068 22.8828 17.7 22.8188 18.124C22.7628 18.54 22.6148 18.916 22.3748 19.252C21.7748 20.084 20.9148 20.5 19.7948 20.5H16.7108V11.956H19.7948C20.9148 11.956 21.7748 12.372 22.3748 13.204C22.6148 13.54 22.7628 13.92 22.8188 14.344ZM21.1868 17.764C21.2268 17.46 21.2468 16.948 21.2468 16.228C21.2468 15.508 21.2268 14.996 21.1868 14.692C21.1468 14.388 21.0508 14.148 20.8988 13.972C20.6188 13.62 20.2028 13.444 19.6508 13.444H18.3788V19.012H19.6508C20.2028 19.012 20.6188 18.836 20.8988 18.484C21.0508 18.308 21.1468 18.068 21.1868 17.764Z" fill="#FEFEFE"/>
<rect x="0.5" y="0.5" width="31" height="31" rx="1.5" stroke="#FEFEFE"/>
</svg>
