<svg width="36" height="36" viewBox="0 0 36 36" fill="none" xmlns="http://www.w3.org/2000/svg">
<g filter="url(#filter0_d_1_6427)">
<path d="M9.75852 20.5V11.7727H11.6037V15.3736H15.3494V11.7727H17.1903V20.5H15.3494V16.8949H11.6037V20.5H9.75852ZM21.8054 20.5H18.7116V11.7727H21.831C22.7088 11.7727 23.4645 11.9474 24.098 12.2969C24.7315 12.6435 25.2188 13.142 25.5597 13.7926C25.9034 14.4432 26.0753 15.2216 26.0753 16.1278C26.0753 17.0369 25.9034 17.8182 25.5597 18.4716C25.2188 19.125 24.7287 19.6264 24.0895 19.9759C23.4531 20.3253 22.6918 20.5 21.8054 20.5ZM20.5568 18.919H21.7287C22.2741 18.919 22.733 18.8224 23.1051 18.6293C23.4801 18.4332 23.7614 18.1307 23.9489 17.7216C24.1392 17.3097 24.2344 16.7784 24.2344 16.1278C24.2344 15.483 24.1392 14.956 23.9489 14.5469C23.7614 14.1378 23.4815 13.8366 23.1094 13.6435C22.7372 13.4503 22.2784 13.3537 21.733 13.3537H20.5568V18.919Z" fill="white"/>
<rect x="2.5" y="0.5" width="31" height="31" rx="1.5" stroke="#FEFEFE"/>
</g>
<defs>
<filter id="filter0_d_1_6427" x="0" y="0" width="36" height="36" filterUnits="userSpaceOnUse" color-interpolation-filters="sRGB">
<feFlood flood-opacity="0" result="BackgroundImageFix"/>
<feColorMatrix in="SourceAlpha" type="matrix" values="0 0 0 0 0 0 0 0 0 0 0 0 0 0 0 0 0 0 127 0" result="hardAlpha"/>
<feOffset dy="2"/>
<feGaussianBlur stdDeviation="1"/>
<feColorMatrix type="matrix" values="0 0 0 0 0 0 0 0 0 0 0 0 0 0 0 0 0 0 0.25 0"/>
<feBlend mode="normal" in2="BackgroundImageFix" result="effect1_dropShadow_1_6427"/>
<feBlend mode="normal" in="SourceGraphic" in2="effect1_dropShadow_1_6427" result="shape"/>
</filter>
</defs>
</svg>
