<svg width="52" height="52" viewBox="0 0 52 52" fill="none" xmlns="http://www.w3.org/2000/svg">
<g filter="url(#filter0_d_41_16186)">
<path d="M35.1781 23.6375C34.8219 23.2719 34.4562 22.8875 34.3156 22.5594C34.175 22.2313 34.1844 21.7438 34.175 21.2469C34.1656 20.3375 34.1469 19.2969 33.425 18.575C32.7031 17.8531 31.6625 17.8344 30.7531 17.825C30.2562 17.8156 29.75 17.8062 29.4406 17.6844C29.1312 17.5625 28.7281 17.1781 28.3625 16.8219C27.7156 16.2031 26.975 15.5 26 15.5C25.025 15.5 24.2844 16.2031 23.6375 16.8219C23.2719 17.1781 22.8875 17.5437 22.5594 17.6844C22.2313 17.825 21.7438 17.8156 21.2469 17.825C20.3375 17.8344 19.2969 17.8531 18.575 18.575C17.8531 19.2969 17.8344 20.3375 17.825 21.2469C17.8156 21.7438 17.8062 22.25 17.6844 22.5594C17.5625 22.8688 17.1781 23.2719 16.8219 23.6375C16.2031 24.2844 15.5 25.025 15.5 26C15.5 26.975 16.2031 27.7156 16.8219 28.3625C17.1781 28.7281 17.5437 29.1125 17.6844 29.4406C17.825 29.7687 17.8156 30.2562 17.825 30.7531C17.8344 31.6625 17.8531 32.7031 18.575 33.425C19.2969 34.1469 20.3375 34.1656 21.2469 34.175C21.7438 34.1844 22.25 34.1937 22.5594 34.3156C22.8688 34.4375 23.2719 34.8219 23.6375 35.1781C24.2844 35.7969 25.025 36.5 26 36.5C26.975 36.5 27.7156 35.7969 28.3625 35.1781C28.7281 34.8219 29.1125 34.4562 29.4406 34.3156C29.7687 34.175 30.2562 34.1844 30.7531 34.175C31.6625 34.1656 32.7031 34.1469 33.425 33.425C34.1469 32.7031 34.1656 31.6625 34.175 30.7531C34.1844 30.2562 34.1937 29.75 34.3156 29.4406C34.4375 29.1312 34.8219 28.7281 35.1781 28.3625C35.7969 27.7156 36.5 26.975 36.5 26C36.5 25.025 35.7969 24.2844 35.1781 23.6375ZM30.6406 24.2938L25.1469 29.5438C25.0048 29.6774 24.8169 29.7512 24.6219 29.75C24.4298 29.7507 24.2449 29.6768 24.1063 29.5438L21.3594 26.9188C21.2832 26.8523 21.2212 26.7711 21.1772 26.6801C21.1332 26.589 21.1081 26.49 21.1033 26.389C21.0985 26.2881 21.1142 26.1871 21.1494 26.0924C21.1846 25.9976 21.2386 25.9109 21.3082 25.8375C21.3778 25.7642 21.4615 25.7056 21.5543 25.6654C21.647 25.6252 21.747 25.6042 21.8481 25.6036C21.9492 25.603 22.0494 25.6229 22.1426 25.662C22.2358 25.7011 22.3202 25.7587 22.3906 25.8312L24.6219 27.9594L29.6094 23.2062C29.7552 23.079 29.9446 23.0131 30.1379 23.0222C30.3312 23.0314 30.5135 23.1149 30.6467 23.2553C30.7798 23.3958 30.8535 23.5822 30.8524 23.7758C30.8513 23.9693 30.7754 24.1549 30.6406 24.2938Z" fill="#71F36F"/>
</g>
<defs>
<filter id="filter0_d_41_16186" x="-1" y="-1" width="54" height="54" filterUnits="userSpaceOnUse" color-interpolation-filters="sRGB">
<feFlood flood-opacity="0" result="BackgroundImageFix"/>
<feColorMatrix in="SourceAlpha" type="matrix" values="0 0 0 0 0 0 0 0 0 0 0 0 0 0 0 0 0 0 127 0" result="hardAlpha"/>
<feOffset/>
<feGaussianBlur stdDeviation="7.5"/>
<feColorMatrix type="matrix" values="0 0 0 0 0.443767 0 0 0 0 0.954167 0 0 0 0 0.433351 0 0 0 1 0"/>
<feBlend mode="normal" in2="BackgroundImageFix" result="effect1_dropShadow_41_16186"/>
<feBlend mode="normal" in="SourceGraphic" in2="effect1_dropShadow_41_16186" result="shape"/>
</filter>
</defs>
</svg>
