<?xml version="1.0" encoding="utf-8"?><svg viewBox="0 0 32 32" xmlns="http://www.w3.org/2000/svg" xmlns:xlink="http://www.w3.org/1999/xlink"><style>:root>svg{display:none}:root>svg:target{display:block}</style><svg viewBox="0 0 20 20" id="discord" xmlns="http://www.w3.org/2000/svg"><path d="M16.93 3.463A16.491 16.491 0 0012.86 2.2a.062.062 0 00-.066.031c-.175.313-.37.72-.506 1.041a15.226 15.226 0 00-4.573 0 10.538 10.538 0 00-.515-1.04.064.064 0 00-.065-.032 16.447 16.447 0 00-4.07 1.263.058.058 0 00-.028.023C.444 7.36-.266 11.138.083 14.869a.069.069 0 00.026.047 16.586 16.586 0 004.994 2.525.064.064 0 00.07-.023c.385-.526.728-1.08 1.022-1.662a.063.063 0 00-.035-.088 10.917 10.917 0 01-1.56-.744.064.064 0 01-.007-.106c.105-.079.21-.16.31-.243a.062.062 0 01.065-.009c3.273 1.495 6.817 1.495 10.051 0a.062.062 0 01.066.008c.1.083.204.165.31.244a.064.064 0 01-.005.106c-.499.292-1.017.538-1.561.743a.064.064 0 00-.034.089 13.3 13.3 0 001.02 1.661.063.063 0 00.07.024 16.532 16.532 0 005.003-2.525.065.065 0 00.026-.046c.417-4.314-.699-8.061-2.957-11.383a.05.05 0 00-.026-.024zM6.684 12.597c-.985 0-1.797-.904-1.797-2.015 0-1.111.796-2.016 1.797-2.016 1.01 0 1.814.912 1.798 2.016 0 1.11-.796 2.015-1.798 2.015zm6.646 0c-.986 0-1.797-.904-1.797-2.015 0-1.111.796-2.016 1.797-2.016 1.009 0 1.813.912 1.797 2.016 0 1.11-.788 2.015-1.797 2.015z"/></svg><svg viewBox="0 0 30 29" id="download" xmlns="http://www.w3.org/2000/svg"><g clip-path="url(#bclip0_1_6430)"><path d="M3.882 24.647H26.235c.353 0 .706.294.706 1s-.53.823-.588.823H4c-.647 0-1-.176-1-.882s.53-.941.882-.941zm12.412-7.06l6.118-8.058c.412-.412 1-.53 1.294-.235l.176.176c.47.412.236.941 0 1.177l-8.235 10.059c-.176.176-.412.176-.588 0l-8.353-10.06c-.294-.293-.353-.764.059-1.176.411-.411.94-.294 1.353.118l6.411 8.118V-1.177h1.706"/></g><defs><clipPath id="bclip0_1_6430"><path d="M0 0h30v28.235H0z"/></clipPath></defs></svg><svg viewBox="0 0 32 32" id="favorite" xmlns="http://www.w3.org/2000/svg"><path d="M16.713 26.488l10.125-10.125c2.487-2.5 2.85-6.588.5-9.2A6.5 6.5 0 0017.9 6.9L16 8.813l-1.637-1.65c-2.5-2.488-6.588-2.85-9.2-.5A6.5 6.5 0 004.9 16.1l10.388 10.388a1.012 1.012 0 001.425 0v0z" stroke="currentColor" stroke-width="1.5" stroke-linecap="round" stroke-linejoin="round"/></svg><svg viewBox="0 0 32 32" id="plus" xmlns="http://www.w3.org/2000/svg"><path d="M5 16h22M16 5v22" stroke="currentColor" stroke-width="1.5" stroke-linecap="round" stroke-linejoin="round"/></svg><svg viewBox="0 0 10 10" id="reply-left" xmlns="http://www.w3.org/2000/svg"><path d="M9.062 5.625a2.504 2.504 0 01-2.5 2.5H3.125a.312.312 0 110-.625h3.437a1.875 1.875 0 100-3.75H3.437v1.562a.312.312 0 01-.312.313.324.324 0 01-.223-.09L1.027 3.66a.316.316 0 010-.445L2.902 1.34a.328.328 0 01.344-.067.312.312 0 01.191.29v1.562h3.125a2.504 2.504 0 012.5 2.5z"/></svg><svg viewBox="0 0 32 32" id="share" xmlns="http://www.w3.org/2000/svg"><path d="M8 20a4 4 0 100-8 4 4 0 000 8zM22 29a4 4 0 100-8 4 4 0 000 8zM22 11a4 4 0 100-8 4 4 0 000 8zM18.637 9.163l-7.275 4.675M11.362 18.163l7.275 4.675" stroke="currentColor" stroke-width="1.5" stroke-linecap="round" stroke-linejoin="round"/></svg><svg viewBox="0 0 20 20" id="warning" xmlns="http://www.w3.org/2000/svg"><path d="M10 1.875A8.125 8.125 0 1018.125 10 8.14 8.14 0 0010 1.875zM9.375 6.25a.625.625 0 011.25 0v4.375a.624.624 0 11-1.25 0V6.25zM10 14.375a.938.938 0 110-1.875.938.938 0 010 1.875z"/></svg></svg>