<?xml version="1.0" encoding="utf-8"?><svg viewBox="0 0 57 56" xmlns="http://www.w3.org/2000/svg" xmlns:xlink="http://www.w3.org/1999/xlink"><style>:root>svg{display:none}:root>svg:target{display:block}</style><svg viewBox="0 0 20 20" id="MyFreeCams" xmlns="http://www.w3.org/2000/svg"><g clip-path="url(#aaclip0_1937_305)"><path fill-rule="evenodd" clip-rule="evenodd" d="M20.051 10.026c0 5.537-4.488 10.025-10.025 10.025S0 15.563 0 10.026 4.489 0 10.026 0 20.05 4.489 20.05 10.026zm-2.86-6.11h-4.723L9.989 12.64 7.52 3.916H2.796v12.06h3.151V7.019l2.439 8.959h3.231l2.422-8.861v8.861h3.151V3.916z"/></g><defs><clipPath id="aaclip0_1937_305"><path d="M0 0h20v20H0z"/></clipPath></defs></svg><svg viewBox="0 0 40 40" id="account-apple" xmlns="http://www.w3.org/2000/svg"><g clip-path="url(#abclip0_0_975)"><path d="M36.32 31.172a21.75 21.75 0 01-2.15 3.867c-1.132 1.612-2.058 2.728-2.771 3.348-1.106 1.017-2.291 1.538-3.56 1.568-.912 0-2.01-.26-3.29-.786-1.283-.523-2.462-.782-3.54-.782-1.13 0-2.344.259-3.64.782-1.3.526-2.347.8-3.147.828-1.217.051-2.43-.484-3.64-1.61-.774-.674-1.74-1.83-2.898-3.467-1.243-1.748-2.264-3.775-3.064-6.086-.857-2.496-1.287-4.913-1.287-7.254 0-2.68.58-4.992 1.74-6.93.911-1.556 2.124-2.784 3.643-3.685a9.8 9.8 0 014.925-1.39c.966 0 2.234.3 3.81.887 1.57.59 2.579.889 3.021.889.33 0 1.451-.35 3.35-1.047 1.797-.647 3.313-.914 4.555-.809 3.365.272 5.893 1.599 7.575 3.989-3.01 1.823-4.499 4.377-4.47 7.654.028 2.552.954 4.676 2.773 6.363a9.112 9.112 0 002.77 1.817 29.991 29.991 0 01-.705 1.854zM28.6.8c0 2-.73 3.869-2.187 5.597-1.758 2.056-3.885 3.243-6.19 3.056a6.224 6.224 0 01-.047-.758c0-1.92.836-3.976 2.32-5.656.742-.851 1.685-1.559 2.828-2.123C26.465.36 27.545.053 28.559 0c.03.267.042.535.042.8z"/></g><defs><clipPath id="abclip0_0_975"><path d="M0 0h40v40H0z"/></clipPath></defs></svg><svg viewBox="0 0 40 40" id="account-facebook" xmlns="http://www.w3.org/2000/svg"><g clip-path="url(#acclip0_0_981)"><path d="M40 20C40 8.954 31.046 0 20 0S0 8.954 0 20c0 9.982 7.314 18.257 16.875 19.757V25.781h-5.078V20h5.078v-4.406c0-5.013 2.986-7.781 7.554-7.781 2.188 0 4.477.39 4.477.39v4.922h-2.522c-2.484 0-3.259 1.542-3.259 3.125V20h5.547l-.887 5.781h-4.66v13.976C32.686 38.257 40 29.982 40 20z"/></g><defs><clipPath id="acclip0_0_981"><path d="M0 0h40v40H0z"/></clipPath></defs></svg><svg viewBox="0 0 40 40" id="account-google" xmlns="http://www.w3.org/2000/svg"><g clip-path="url(#adclip0_0_977)"><path fill-rule="evenodd" clip-rule="evenodd" d="M28.072 10.914A10.868 10.868 0 0020.4 7.915c-5.218 0-9.65 3.52-11.23 8.26a11.98 11.98 0 000 7.658h.008c1.587 4.733 6.011 8.253 11.23 8.253 2.693 0 5.005-.69 6.797-1.906v-.005a9.258 9.258 0 003.998-6.078H20.4v-7.701h18.864c.236 1.337.346 2.704.346 4.064 0 6.083-2.174 11.226-5.957 14.71l.004.002C30.343 38.23 25.794 40 20.4 40A20.003 20.003 0 012.527 28.984a20.017 20.017 0 010-17.96A19.996 19.996 0 0120.4 0a19.222 19.222 0 0113.382 5.203l-5.71 5.71z"/></g><defs><clipPath id="adclip0_0_977"><path d="M0 0h40v40H0z"/></clipPath></defs></svg><svg viewBox="0 0 40 40" id="account-twitter" xmlns="http://www.w3.org/2000/svg"><g clip-path="url(#aeclip0_0_979)"><path d="M12.584 36.25c15.09 0 23.347-12.505 23.347-23.347 0-.351-.008-.71-.024-1.062A16.666 16.666 0 0040 7.592a16.18 16.18 0 01-4.71 1.29 8.25 8.25 0 003.608-4.539 16.495 16.495 0 01-5.209 1.991 8.217 8.217 0 00-13.99 7.483A23.309 23.309 0 012.79 5.25 8.216 8.216 0 005.326 16.2a8.218 8.218 0 01-3.718-1.023v.101a8.203 8.203 0 006.585 8.047 8.157 8.157 0 01-3.703.14 8.223 8.223 0 007.663 5.704A16.459 16.459 0 010 32.564a23.282 23.282 0 0012.584 3.686z"/></g><defs><clipPath id="aeclip0_0_979"><path d="M0 0h40v40H0z"/></clipPath></defs></svg><svg viewBox="0 0 20 20" id="angle-left" xmlns="http://www.w3.org/2000/svg"><path d="M12.5 16.25L6.25 10l6.25-6.25" stroke="currentColor" stroke-width="1.5" stroke-linecap="round" stroke-linejoin="round"/></svg><svg viewBox="0 0 20 21" id="angle-right" xmlns="http://www.w3.org/2000/svg"><path d="M7.5 4.25l6.25 6.25-6.25 6.25" stroke="currentColor" stroke-width="1.5" stroke-linecap="round" stroke-linejoin="round"/></svg><svg viewBox="0 0 16 16" id="arrow-right" xmlns="http://www.w3.org/2000/svg"><path d="M2.5 8h11M9 3.5L13.5 8 9 12.5" stroke="currentColor" stroke-width="1.5" stroke-linecap="round" stroke-linejoin="round"/></svg><svg viewBox="0 0 57 56" id="camera" xmlns="http://www.w3.org/2000/svg"><path d="M46 45.5H11A3.5 3.5 0 017.5 42V17.5A3.5 3.5 0 0111 14h7l3.5-5.25h14L39 14h7a3.5 3.5 0 013.5 3.5V42a3.5 3.5 0 01-3.5 3.5z" stroke="currentColor" stroke-width="1.5" stroke-linecap="round" stroke-linejoin="round"/><path d="M28.5 36.75a7.875 7.875 0 100-15.75 7.875 7.875 0 000 15.75z" stroke="currentColor" stroke-width="1.5" stroke-linecap="round" stroke-linejoin="round"/></svg><svg viewBox="0 0 20 20" id="chaturbate" xmlns="http://www.w3.org/2000/svg"><g clip-path="url(#ajclip0_1937_339)" fill-rule="evenodd" clip-rule="evenodd"><path d="M13.427 15.068c1.218 0 2.919-1.618 3.186-3.286h.068c1.109.022 1.755.57 1.867 1.49.011.094.017.194.017.297 0 1.751-1.818 4.52-4.653 4.52-3.837 0-5.504-3.102-5.504-6.587.006-.91.113-1.815.317-2.702-4.354-.35-7.592-1.668-7.592-3.37.002-.885.886-1.871 2.955-2.872.1 2.803 2.167 4.555 4.92 5.204.179-.545.398-1.074.653-1.576 1.19-2.338 3.18-4.079 5.734-4.079 2.303 0 3.47 1.101 3.47 2.402 0 1.693-1.963 3.744-5.976 4.25-.22.028-.446.051-.679.07-.567 1.167-.951 2.518-.951 3.669 0 1.453.6 2.57 2.168 2.57zm-.75-7.056c2.233-.166 3.014-.867 3.014-1.368 0-.283-.267-.516-.65-.516-.812 0-1.68.783-2.364 1.884zm-3.92.37l-.186-.016c-1.296-.42-2.353-1.082-3.11-1.934.873.802 2.041 1.4 3.452 1.734a.407.407 0 00.34-.068.415.415 0 00.15-.207c.159-.479.357-.964.594-1.437 1.048-2.088 2.86-3.931 5.4-3.931 1.306 0 2.285.388 2.75 1.038-.534-.4-1.34-.623-2.336-.623-2.514 0-4.317 1.809-5.37 3.87-.25.492-.46.997-.624 1.497a.415.415 0 01-.49.274c-.071-.016-.14-.036-.208-.055l-.11-.03a.41.41 0 00-.252-.111zm-6.79-2.54c0-.63.662-1.346 1.884-2.055a5.525 5.525 0 01-.121-.581c-1.412.763-2.18 1.543-2.18 2.222 0 .388.242.765.681 1.116a1.155 1.155 0 01-.264-.702zm14.055.424c.059.117.09.247.089.378 0 .363-.215.755-.732 1.081.395-.153.776-.34 1.14-.558a.927.927 0 00.007-.112.902.902 0 00-.504-.79zm-2.18 9.633c1.391 0 3.063-1.593 3.517-3.268.22.022.434.088.628.195l-.002-.004a1.115 1.115 0 00-.66-.525 1.91 1.91 0 00-.38-.082c-.454 1.675-2.121 3.268-3.517 3.268-.635 0-1.164-.164-1.575-.474.44.577 1.114.89 1.99.89zM9.544 9.304c-.197.856-.3 1.731-.307 2.61 0 1.69.433 3.444 1.483 4.653-1.357-1.19-1.898-3.167-1.898-5.065.006-.879.11-1.754.307-2.61a.42.42 0 00.01-.094h.033a.415.415 0 01.372.506z"/><path d="M7.275 11.498A12.806 12.806 0 017.393 9.8a25.24 25.24 0 01-.634-.087C2.49 9.073 0 7.52 0 5.428c0-1.452 1.176-2.721 3.593-3.891L5.156.779l.062 1.74.007.13c.116 1.79 1.224 2.82 2.38 3.41l.096.048c.208.102.416.19.62.265.134-.315.28-.618.434-.908 1.5-2.815 3.922-4.491 6.64-4.491C18.577.973 20 2.749 20 4.51c0 2.107-2.024 4.396-5.916 5.202a13.81 13.81 0 01-1.105.181c-.37.914-.584 1.855-.584 2.607 0 1.434.646 1.434 1.033 1.434.542 0 1.867-1.103 2.065-2.33l.109-.682.044-.274h.968c1.874 0 3.087 1.146 3.087 2.92-.001 2.304-2.255 5.653-5.788 5.653-4.032 0-6.638-3.032-6.638-7.723zM3.933 2.24l.485-.235.02.541c.1 2.72 2.095 3.995 3.61 4.559l.699.26.292-.686c.107-.248.22-.488.338-.72 1.391-2.703 3.62-4.205 6.019-4.205 1.445 0 2.398.402 2.978.913.579.51.845 1.178.845 1.843 0 1.663-1.78 3.92-5.948 4.554-.127.02-.257.037-.388.054l-.456.056-.173.426c-.395.976-.64 2.019-.64 2.9 0 .8.175 1.448.645 1.849.434.371.952.368 1.142.366h.027c.352 0 .688-.16.926-.303.267-.16.54-.38.792-.634.49-.496.985-1.22 1.119-2.05l.039-.246.008-.052h.302c.778 0 1.344.235 1.71.58.36.341.595.855.595 1.557 0 .927-.47 2.162-1.37 3.17-.888.994-2.134 1.703-3.636 1.703-1.806 0-3.243-.672-4.239-1.83-1.006-1.171-1.618-2.906-1.618-5.111a12.03 12.03 0 01.111-1.592l.108-.784-.786-.098c-2.274-.282-4.004-.807-5.142-1.478C1.214 6.878.782 6.144.782 5.427c0-.958.769-2.034 3.151-3.187z"/></g><defs><clipPath id="ajclip0_1937_339"><path d="M0 0h20v20H0z"/></clipPath></defs></svg><svg viewBox="0 0 32 32" id="check-circle" xmlns="http://www.w3.org/2000/svg"><path d="M6.813 25.188c-1.15-1.15-.388-3.563-.975-4.976C5.25 18.8 3 17.563 3 16c0-1.563 2.225-2.75 2.838-4.213.612-1.462-.176-3.825.974-4.975 1.15-1.15 3.563-.387 4.975-.974C13.2 5.25 14.438 3 16 3c1.563 0 2.75 2.225 4.212 2.838 1.463.612 3.826-.176 4.976.974s.387 3.563.975 4.975C26.75 13.2 29 14.438 29 16c0 1.563-2.225 2.75-2.837 4.212-.613 1.463.174 3.826-.976 4.976s-3.562.387-4.975.975C18.8 26.75 17.563 29 16 29c-1.563 0-2.75-2.225-4.213-2.837-1.462-.613-3.825.174-4.975-.976z"/><path d="M21.5 13l-7.338 7-3.662-3.5" stroke="currentColor" stroke-width="1.5" stroke-linecap="round" stroke-linejoin="round"/></svg><svg viewBox="0 0 20 20" id="check-circle-stroke" xmlns="http://www.w3.org/2000/svg"><path d="M4.258 15.742c-.719-.719-.242-2.226-.61-3.11-.367-.882-1.773-1.655-1.773-2.632 0-.977 1.39-1.719 1.773-2.633.383-.914-.109-2.39.61-3.11.719-.718 2.226-.241 3.11-.609C8.25 3.281 9.022 1.875 10 1.875c.977 0 1.719 1.39 2.633 1.773.914.383 2.39-.109 3.11.61.718.719.241 2.226.609 3.11.367.882 1.773 1.655 1.773 2.632 0 .977-1.39 1.719-1.773 2.633-.383.914.109 2.39-.61 3.11-.719.718-2.226.241-3.11.609-.882.367-1.655 1.773-2.632 1.773-.977 0-1.719-1.39-2.633-1.773-.914-.383-2.39.109-3.11-.61z" stroke="currentColor" stroke-width="1.5" stroke-linecap="round" stroke-linejoin="round"/><path d="M13.438 8.125L8.851 12.5l-2.29-2.188" stroke="currentColor" stroke-width="1.5" stroke-linecap="round" stroke-linejoin="round"/></svg><svg viewBox="0 0 20 20" id="close" xmlns="http://www.w3.org/2000/svg"><path d="M15.625 4.375l-11.25 11.25M15.625 15.625L4.375 4.375" stroke="currentColor" stroke-width="1.5" stroke-linecap="round" stroke-linejoin="round"/></svg><svg viewBox="0 0 14 14" id="collection" xmlns="http://www.w3.org/2000/svg"><g clip-path="url(#anclip0_0_5692)"><path fill-rule="evenodd" clip-rule="evenodd" d="M9.452.02H4.548c-.978 0-1.333.101-1.69.292-.354.187-.658.439-.845.793-.191.357-.279.528-.279 1.237v10.764c0 .485.002.894.487.894.198 0 .308-.082.446-.206l4.29-3.135 4.198 3.061c.381.3.719.427 1.018.046.12-.154.091-.464.091-.66V2.342a2.35 2.35 0 00-.292-1.2 1.995 1.995 0 00-.83-.83C10.785.12 10.432.02 9.452.02zm1.566 2.322v9.884l-2.93-2.151a1.754 1.754 0 00-2.178 0l-3.015 2.15V2.343c0-.375.017-.61.043-.746a.307.307 0 01.044-.117.849.849 0 01.215-.203c.035-.023.22-.054.26-.061.136-.026.4-.035.776-.035h5.22c.375 0 .995.017 1.131.044.053.01.165.007.217.035a.66.66 0 01.179.183c.028.053.028.2.038.254"/></g><defs><clipPath id="anclip0_0_5692"><path d="M0 0h14v14H0z"/></clipPath></defs></svg><svg viewBox="0 0 14 14" id="external-link" xmlns="http://www.w3.org/2000/svg"><g clip-path="url(#aoclip0_0_6929)"><path fill-rule="evenodd" clip-rule="evenodd" d="M7.833 1.762a.88.88 0 110-1.762h5.286A.88.88 0 0114 .88v5.286a.88.88 0 11-1.762 0V3.008L1.504 13.742a.882.882 0 01-1.246-1.246L10.992 1.762H7.833z"/></g><defs><clipPath id="aoclip0_0_6929"><path d="M0 0h14v14H0z"/></clipPath></defs></svg><svg viewBox="0 0 20 20" id="eye" xmlns="http://www.w3.org/2000/svg"><path d="M19.32 9.75c-.023-.063-.687-1.531-2.156-3.008C15.204 4.79 12.727 3.75 10 3.75c-2.726 0-5.203 1.04-7.164 2.992C1.367 8.22.703 9.688.68 9.75a.617.617 0 000 .5c.023.063.687 1.531 2.156 3.008C4.797 15.21 7.274 16.25 10 16.25c2.727 0 5.203-1.04 7.164-2.992 1.469-1.477 2.133-2.945 2.156-3.008a.617.617 0 000-.5zM10 7.187a2.812 2.812 0 110 5.625 2.812 2.812 0 010-5.624z"/></svg><svg viewBox="0 0 20 20" id="eye-close" xmlns="http://www.w3.org/2000/svg"><path d="M10 4.375C3.75 4.375 1.25 10 1.25 10s2.5 5.625 8.75 5.625S18.75 10 18.75 10 16.25 4.375 10 4.375z" stroke="currentColor" stroke-width="1.5" stroke-linecap="round" stroke-linejoin="round"/><path d="M4 2.5l12.5 15" stroke="currentColor" stroke-width="2"/><path d="M10 13.125a3.125 3.125 0 100-6.25 3.125 3.125 0 000 6.25z" stroke="currentColor" stroke-width="1.5" stroke-linecap="round" stroke-linejoin="round"/></svg><svg viewBox="0 0 21 20" id="eye-stroke" xmlns="http://www.w3.org/2000/svg"><path d="M10.334 4.375c-6.25 0-8.75 5.625-8.75 5.625s2.5 5.625 8.75 5.625S19.084 10 19.084 10s-2.5-5.625-8.75-5.625z" stroke="currentColor" stroke-width="1.5" stroke-linecap="round" stroke-linejoin="round"/><path d="M10.334 13.125a3.125 3.125 0 100-6.25 3.125 3.125 0 000 6.25z" stroke="currentColor" stroke-width="1.5" stroke-linecap="round" stroke-linejoin="round"/></svg><svg viewBox="0 0 20 20" id="fansly" xmlns="http://www.w3.org/2000/svg"><path d="M4.935 2.002c.326.005.559.019.694.042.111.018.293.056.405.084.111.027.303.083.426.124a5.936 5.936 0 011.088.525c.124.08.315.22.427.311.112.091.498.454 1.514 1.445v.187L7.942 6.223l-.191-.001-.704-.68c-.471-.455-.753-.712-.853-.776a3.31 3.31 0 00-.33-.179 2.815 2.815 0 00-.385-.136 2.947 2.947 0 00-.416-.07 3.123 3.123 0 00-.416 0 2.968 2.968 0 00-.383.06c-.1.025-.263.079-.363.12-.1.042-.268.131-.373.198a2.803 2.803 0 00-.376.3 2.76 2.76 0 00-.309.365c-.069.103-.16.266-.203.363a2.805 2.805 0 00-.124.353 2.74 2.74 0 00-.062.373 2.87 2.87 0 000 .404c.01.114.042.296.072.405.03.108.093.276.14.373.047.097.13.241.184.321.069.102.38.421 2 2.001L8.37 6.6c1.935-1.88 3.6-3.48 3.7-3.557a5.659 5.659 0 01.789-.506c.111-.058.308-.147.437-.198.129-.052.35-.126.49-.166.142-.04.381-.093.534-.12.242-.042.345-.048.821-.048s.579.006.822.048c.152.027.392.08.533.12.14.04.361.114.49.166.13.05.326.14.438.198.111.058.284.158.384.221.1.064.272.187.383.274a5.789 5.789 0 01.803.797c.071.09.18.24.242.331a5.581 5.581 0 01.51 1.037c.047.137.109.356.139.487.03.131.063.318.076.415a4.663 4.663 0 01-.652 3.048 5.798 5.798 0 01-.264.384 6.4 6.4 0 01-.347.404c-.112.12-.452.458-1.307 1.285h-.213l-.744-.72c-.423-.41-.756-.75-.773-.787a.227.227 0 01-.016-.125c.009-.038.239-.278.689-.72.441-.434.713-.718.783-.82.06-.085.142-.22.184-.3.041-.08.1-.222.13-.316.031-.095.07-.253.089-.353.017-.1.032-.258.032-.352 0-.095-.011-.244-.024-.332a2.859 2.859 0 00-.076-.337 2.77 2.77 0 00-.128-.332 2.918 2.918 0 00-.187-.321 2.62 2.62 0 00-.26-.312 3.127 3.127 0 00-.296-.255 2.916 2.916 0 00-.352-.21 2.84 2.84 0 00-.384-.153 3.533 3.533 0 00-.32-.076 3.012 3.012 0 00-.821.01 3.16 3.16 0 00-.33.083 2.765 2.765 0 00-.3.12c-.075.037-.21.114-.298.17-.118.075-.406.34-2.048 1.93l2.528 2.456c2.318 2.254 2.528 2.463 2.528 2.525a.314.314 0 01-.03.124c-.018.031-1.412 1.397-3.1 3.034-2.316 2.248-3.093 2.99-3.173 3.031-.06.03-.165.07-.235.087-.07.018-.186.032-.256.032s-.17-.01-.224-.022a1.367 1.367 0 01-.213-.075c-.102-.046-.641-.561-4.188-4.006-2.239-2.174-4.147-4.041-4.241-4.15a5.173 5.173 0 01-.306-.393A5.978 5.978 0 01.59 8.99a6.425 6.425 0 01-.175-.342 4.932 4.932 0 01-.366-1.182 5.4 5.4 0 01-.045-.632 3.93 3.93 0 01.024-.695c.019-.143.06-.366.09-.498.03-.13.093-.346.139-.477a5.541 5.541 0 01.438-.912c.054-.086.18-.263.281-.394.1-.131.298-.35.439-.488.141-.137.367-.329.502-.427.134-.097.317-.22.405-.272.088-.053.28-.152.426-.22.147-.069.377-.162.512-.207.135-.045.356-.106.491-.135a7.31 7.31 0 01.47-.085 4.81 4.81 0 01.714-.023zM9.201 9.5a2.828 2.828 0 00-.724.398c-.104.083-.26.234-.346.337-.104.124-.2.27-.285.436a1.973 1.973 0 00-.25.964 1.99 1.99 0 00.103.787c.024.075.086.22.136.322.051.102.15.261.22.352.07.091.2.234.29.316.09.083.238.198.329.256.09.058.223.132.293.164.07.032.188.079.261.102.074.024.203.058.288.076a2.447 2.447 0 00.773.03 3.17 3.17 0 00.374-.076c.1-.028.258-.086.352-.129.093-.042.247-.128.341-.19.094-.062.247-.188.341-.279.094-.091.224-.24.288-.332.064-.091.152-.24.195-.332.044-.09.103-.245.132-.342a2.318 2.318 0 00.093-.777 2.77 2.77 0 00-.044-.332 3.227 3.227 0 00-.078-.28 2.824 2.824 0 00-.359-.664 2.804 2.804 0 00-.261-.28 2.953 2.953 0 00-.318-.251 3.132 3.132 0 00-.266-.158 2.848 2.848 0 00-.672-.214c-.1-.017-.297-.03-.437-.028a2.451 2.451 0 00-.768.124zm.843.713c.1.005.232.021.294.036.087.021.11.034.098.058a2.749 2.749 0 00-.042.104.548.548 0 00-.029.161.646.646 0 00.145.379c.034.04.113.1.176.134.1.054.137.063.275.063.141 0 .175-.008.405-.135l.045.098c.024.055.064.174.088.265.036.138.042.207.032.415a1.327 1.327 0 01-.058.383 2.022 2.022 0 01-.109.25 1.84 1.84 0 01-.164.238c-.056.068-.16.169-.23.224-.07.055-.203.136-.297.18a2.025 2.025 0 01-.32.114 1.453 1.453 0 01-.416.026 1.295 1.295 0 01-.437-.066 1.92 1.92 0 01-.32-.146 1.901 1.901 0 01-.31-.253 1.293 1.293 0 01-.249-.34 1.902 1.902 0 01-.124-.31 1.468 1.468 0 01.062-.933c.031-.074.087-.186.125-.248a1.734 1.734 0 01.486-.472 2.32 2.32 0 01.256-.122 1.86 1.86 0 01.288-.083c.084-.016.227-.024.33-.02z"/></svg><svg viewBox="0 0 20 20" id="favorite" xmlns="http://www.w3.org/2000/svg"><path d="M10.446 16.555l6.328-6.328c1.554-1.563 1.781-4.117.312-5.75a4.063 4.063 0 00-5.898-.164L10 5.508 8.977 4.477c-1.563-1.555-4.117-1.781-5.75-.313a4.063 4.063 0 00-.164 5.899l6.492 6.492a.633.633 0 00.89 0v0z" stroke="currentColor" stroke-width="1.5" stroke-linecap="round" stroke-linejoin="round"/></svg><svg viewBox="0 0 20 20" id="instagram" xmlns="http://www.w3.org/2000/svg"><g clip-path="url(#auclip0_1937_6)"><path d="M16 0H4C1.8 0 0 1.8 0 4v12c0 2.2 1.8 4 4 4h12c2.2 0 4-1.8 4-4V4c0-2.2-1.8-4-4-4zm-6 15c-2.75 0-5-2.25-5-5s2.25-5 5-5 5 2.25 5 5-2.25 5-5 5zm5.5-9.5c-.55 0-1-.45-1-1s.45-1 1-1 1 .45 1 1-.45 1-1 1z"/></g><defs><clipPath id="auclip0_1937_6"><path d="M0 0h20v20H0z"/></clipPath></defs></svg><svg viewBox="0 0 20 20" id="manyvids" xmlns="http://www.w3.org/2000/svg"><g clip-path="url(#avclip0_1937_329)"><mask id="ava" style="mask-type:luminance" maskUnits="userSpaceOnUse" x="0" y="0" width="20" height="20"><path d="M20 0H0v20h20V0z"/></mask><g mask="url(#ava)"><path d="M10.01 9.35a4.52 4.52 0 011.368-1.782 3.648 3.648 0 014.649.286 4.832 4.832 0 01.994 5.614 11.257 11.257 0 01-2.269 3.014 24.167 24.167 0 01-4.574 3.473.347.347 0 01-.294.023 22.976 22.976 0 01-5.338-4.24 8.05 8.05 0 01-1.903-3.198 4.746 4.746 0 011.498-4.81 3.607 3.607 0 015.5.97c.125.2.235.411.37.65zm1.343 6.58c-.013-.072-.02-.13-.033-.18-.202-.758-.388-1.519-.61-2.27a.475.475 0 01.145-.563c.338-.34.413-.867.183-1.288a1.186 1.186 0 00-1.093-.641 1.15 1.15 0 00-1.028.782c-.176.449-.033.963.348 1.258a.298.298 0 01.101.365c-.215.763-.409 1.532-.609 2.299-.016.08-.027.16-.034.241l2.63-.003zM7.058 2.266c.334.314.658.649 1.014.945.293.243.447.217.64-.106.274-.453.518-.928.755-1.402.032-.063-.03-.202-.09-.274A.846.846 0 019.465.19a.838.838 0 011.18.121c.011.012.02.025.03.038.24.323.21.778-.071 1.067a.256.256 0 00-.06.366c.252.445.48.905.748 1.34.185.302.31.307.604.104.133-.092.258-.195.373-.309.223-.22.434-.452.646-.675-.411-.56-.336-1.13.168-1.399a.844.844 0 011.237.744.818.818 0 01-.46.735.516.516 0 00-.322.411c-.19.79-.402 1.574-.596 2.364a.404.404 0 01-.444.345c-1.664 0-3.329.001-4.993.005a.404.404 0 01-.446-.342c-.202-.805-.421-1.61-.618-2.415a.439.439 0 00-.28-.344.835.835 0 01-.47-.943.852.852 0 01.717-.64.82.82 0 01.895.549.943.943 0 01-.244.955z"/></g></g><defs><clipPath id="avclip0_1937_329"><path d="M0 0h20v20H0z"/></clipPath></defs></svg><svg viewBox="0 0 20 20" id="onlyfans" xmlns="http://www.w3.org/2000/svg"><g clip-path="url(#awclip0_1937_299)"><path d="M10.11 10.824h.042a1.148 1.148 0 01.424 2.214l-.008.003h-.071v.965a.417.417 0 01-.192.352l-.002.001h-.426a.433.433 0 01-.2-.361v-.957a1.148 1.148 0 01.417-2.217h.018-.002zm-.387-4.33h.671a2.074 2.074 0 011.458.604c.375.364.607.872.609 1.434l.002.842H7.655v-.842a2 2 0 01.609-1.434c.375-.372.89-.603 1.46-.605v.001zm0-1.641h-.002a3.735 3.735 0 00-2.635 1.083v-.001A3.604 3.604 0 005.99 8.529v.819l-.464.835v1.203a4.024 4.024 0 001.22 2.885 4.177 4.177 0 002.937 1.2h.751a4.174 4.174 0 002.935-1.2h-.001a4.017 4.017 0 001.222-2.885v-1.204l-.458-.836V8.53a3.616 3.616 0 00-1.099-2.596v-.001a3.735 3.735 0 00-2.635-1.082h-.004l-.67.002zm.267-3.806h.002a8.954 8.954 0 11-8.954 8.954v-.004-.001a8.95 8.95 0 018.95-8.95l.002.001zM10 0C4.477 0 0 4.477 0 10s4.477 10 10 10 10-4.477 10-10S15.523 0 10 0z"/></g><defs><clipPath id="awclip0_1937_299"><path d="M0 0h20v20H0z"/></clipPath></defs></svg><svg viewBox="0 0 20 20" id="patreon" xmlns="http://www.w3.org/2000/svg"><g clip-path="url(#axclip0_1937_303)"><path d="M12.822.198c-3.97 0-7.376 3.17-7.376 7.31 0 4.126 3.406 7.244 7.376 7.244 3.958 0 7.178-3.118 7.178-7.244 0-4.141-3.22-7.31-7.178-7.31zM0 20V0h3.52v20H0z"/></g><defs><clipPath id="axclip0_1937_303"><path d="M0 0h20v20H0z"/></clipPath></defs></svg><svg viewBox="0 0 20 20" id="plus" xmlns="http://www.w3.org/2000/svg"><path d="M3.125 10h13.75M10 3.125v13.75" stroke="currentColor" stroke-width="1.5" stroke-linecap="round" stroke-linejoin="round"/></svg><svg viewBox="0 0 20 20" id="plus-circle" xmlns="http://www.w3.org/2000/svg"><path d="M10 17.5a7.5 7.5 0 100-15 7.5 7.5 0 000 15zM6.875 10h6.25M10 6.875v6.25" stroke="currentColor" stroke-width="1.5" stroke-linecap="round" stroke-linejoin="round"/></svg><svg viewBox="0 0 20 20" id="pornhub" xmlns="http://www.w3.org/2000/svg"><g clip-path="url(#baclip0_1937_342)"><mask id="baa" style="mask-type:luminance" maskUnits="userSpaceOnUse" x="0" y="0" width="20" height="20"><path d="M20 0H0v20h20V0z"/></mask><g mask="url(#baa)"><path d="M18.544 8.22c.532.06.825.385.876.979v9.822c-.051.592-.343.916-.871.978H1.447c-.528-.061-.82-.386-.87-.978V9.199c.05-.594.343-.92.875-.979h17.093zm-9.527 4.022H7.652v3.264c0 .485.062.866.185 1.141s.322.489.597.641c.275.152.586.228.933.228.051 0 .103-.001.154-.005h.004c.868-.026 1.32-.42 1.551-.68v.569h1.268v-5.158h-1.365v2.176c0 .738-.034 1.202-.102 1.391a.975.975 0 01-.379.476 1.071 1.071 0 01-.626.192.843.843 0 01-.505-.143.727.727 0 01-.275-.389c-.05-.163-.075-.608-.075-1.333v-2.37zm5.527-1.962h-1.365v7.12h1.268v-.392a2.272 2.272 0 001.556.508h.056c.599 0 1.108-.238 1.527-.713.42-.477.63-1.155.63-2.036 0-.851-.206-1.504-.617-1.96-.29-.32-.68-.526-1.105-.62a1.943 1.943 0 00-.415-.062c-.56-.051-1.282.173-1.617.454l.082-2.3zm-11.017 0H2.162v7.12h1.365v-2.584c0-.434.041-.762.124-.983a.953.953 0 01.39-.498c.179-.11.381-.166.608-.166.197 0 .362.043.493.13a.676.676 0 01.274.347c.052.145.078.488.078 1.029V17.4h1.365v-3.026c0-.463-.024-.805-.07-1.025a1.62 1.62 0 00-.263-.602 1.39 1.39 0 00-.57-.447 1.971 1.971 0 00-.76-.173H5.18c-.575-.031-1.31.137-1.654.467V10.28zm12.971 5.772c-.212.258-.468.386-.77.386-.391 0-.705-.181-.942-.544-.168-.256-.252-.65-.252-1.185 0-.518.108-.904.325-1.158.217-.254.49-.381.816-.381.334 0 .607.13.821.39.214.261.32.686.32 1.275 0 .554-.105.96-.317 1.217zM4.078 2.393a.857.857 0 01-.41.303c-.176.065-.523.097-1.041.097h-.72v-1.75h.635c.474 0 .79.014.947.042.214.037.39.128.53.274.139.145.208.33.208.555 0 .182-.05.342-.149.48zm.19-2.3C4.023.03 3.502 0 2.701 0H.59v6.166h1.316V3.84h.858c.596 0 1.051-.03 1.365-.088.232-.048.46-.145.683-.292.224-.148.408-.35.554-.608.145-.258.218-.576.218-.955 0-.49-.126-.891-.378-1.2a1.716 1.716 0 00-.939-.604zM9.111 4.95a1.08 1.08 0 01-.82.353c-.327 0-.6-.117-.823-.353-.223-.236-.334-.575-.334-1.018 0-.443.111-.782.334-1.018.222-.235.496-.353.822-.353.326 0 .6.118.821.353.22.236.331.572.331 1.01 0 .449-.11.79-.331 1.026zm-.825-3.352c-.462 0-.881.097-1.256.29a2.047 2.047 0 00-.87.841 2.314 2.314 0 00-.306 1.14c0 .513.102.949.306 1.306.205.358.503.629.896.814.393.185.806.278 1.239.278.7 0 1.28-.223 1.74-.667.462-.444.692-1.005.692-1.68 0-.67-.228-1.225-.684-1.664-.457-.439-1.043-.658-1.757-.658zM13.382 1.615c-.37.045-.723.327-.877.506V1.7h-1.161v4.467h1.25v-1.38c0-.76.034-1.259.104-1.497.07-.239.165-.403.287-.495a.72.72 0 01.445-.136c.18 0 .376.064.586.193l.387-1.03a1.655 1.655 0 00-.822-.223c-.07 0-.135.006-.199.017zM19.337 2.595a1.276 1.276 0 00-.244-.496 1.265 1.265 0 00-.518-.36 1.969 1.969 0 00-.756-.14c-.5-.028-1.312.153-1.557.52v-.42h-1.16v4.467h1.25V4.143c0-.5.031-.842.095-1.026a.854.854 0 01.353-.447c.172-.112.367-.168.583-.168.169 0 .313.04.433.118a.66.66 0 01.26.33c.054.142.08.454.08.936v2.28h1.25V3.39c0-.345-.023-.61-.069-.795z"/></g></g><defs><clipPath id="baclip0_1937_342"><path d="M0 0h20v20H0z"/></clipPath></defs></svg><svg viewBox="0 0 20 21" id="reddit" xmlns="http://www.w3.org/2000/svg"><path fill-rule="evenodd" clip-rule="evenodd" d="M20 10.38c0 5.523-4.477 10-10 10s-10-4.477-10-10 4.477-10 10-10 10 4.477 10 10zm-4.795-1.462c.807 0 1.462.655 1.462 1.462 0 .596-.363 1.111-.842 1.345.023.14.035.28.035.433 0 2.245-2.608 4.058-5.837 4.058-3.228 0-5.836-1.813-5.836-4.058 0-.152.012-.304.035-.445a1.463 1.463 0 01.596-2.795c.387 0 .75.164 1.007.41 1.005-.738 2.397-1.194 3.953-1.24l.737-3.486a.285.285 0 01.117-.164.291.291 0 01.198-.035l2.421.515c.164-.351.515-.585.924-.585.573 0 1.041.468 1.041 1.041s-.467 1.041-1.04 1.041a1.042 1.042 0 01-1.042-.994l-2.163-.456-.667 3.122c1.52.059 2.9.527 3.895 1.24.257-.257.608-.41 1.006-.41zM7.708 10.38c-.573 0-1.041.468-1.041 1.04 0 .574.468 1.042 1.04 1.042.574 0 1.042-.468 1.042-1.041S8.28 10.38 7.708 10.38zm2.304 4.55c.397 0 1.754-.047 2.467-.76a.3.3 0 00.024-.387.275.275 0 00-.386 0c-.456.445-1.404.609-2.094.609s-1.649-.164-2.093-.609a.275.275 0 00-.386 0 .275.275 0 000 .386c.702.702 2.07.76 2.468.76zm1.24-3.51c0 .574.467 1.042 1.04 1.042.574 0 1.041-.468 1.041-1.041s-.467-1.041-1.04-1.041c-.574 0-1.041.468-1.041 1.04z"/></svg><svg viewBox="0 0 21 20" id="search" xmlns="http://www.w3.org/2000/svg"><path d="M9.679 15.625a6.562 6.562 0 100-13.125 6.562 6.562 0 000 13.125zM14.32 13.703l3.796 3.797" stroke="currentColor" stroke-width="1.5" stroke-linecap="round" stroke-linejoin="round"/></svg><svg viewBox="0 0 20 20" id="trash" xmlns="http://www.w3.org/2000/svg"><path d="M16.875 4.375H3.125M8.125 8.125v5M11.875 8.125v5M15.625 4.375V16.25a.624.624 0 01-.625.625H5a.625.625 0 01-.625-.625V4.375M13.125 4.375v-1.25a1.25 1.25 0 00-1.25-1.25h-3.75a1.25 1.25 0 00-1.25 1.25v1.25" stroke="currentColor" stroke-width="1.5" stroke-linecap="round" stroke-linejoin="round"/></svg><svg viewBox="0 0 20 21" id="twitter" xmlns="http://www.w3.org/2000/svg"><g clip-path="url(#beclip0_1_25624)"><path d="M6.292 18.505c7.545 0 11.673-6.253 11.673-11.673 0-.176-.004-.356-.012-.532A8.332 8.332 0 0020 4.176a8.09 8.09 0 01-2.355.645 4.125 4.125 0 001.804-2.27 8.248 8.248 0 01-2.605.996A4.108 4.108 0 009.85 7.29a11.654 11.654 0 01-8.456-4.284 4.108 4.108 0 001.27 5.475 4.108 4.108 0 01-1.86-.512v.051a4.102 4.102 0 003.293 4.024 4.078 4.078 0 01-1.851.07 4.111 4.111 0 003.831 2.851A8.23 8.23 0 010 16.662a11.64 11.64 0 006.292 1.843z"/></g><defs><clipPath id="beclip0_1_25624"><path transform="translate(0 .38)" d="M0 0h20v20H0z"/></clipPath></defs></svg><svg viewBox="0 0 20 20" id="upload" xmlns="http://www.w3.org/2000/svg"><path d="M6.719 6.406L10 3.125l3.281 3.281M10 11.875v-8.75M16.875 11.875v4.375a.624.624 0 01-.625.625H3.75a.625.625 0 01-.625-.625v-4.375" stroke="currentColor" stroke-width="1.5" stroke-linecap="round" stroke-linejoin="round"/></svg><svg viewBox="0 0 20 20" id="user-circle" xmlns="http://www.w3.org/2000/svg"><path d="M10 17.5a7.5 7.5 0 100-15 7.5 7.5 0 000 15z" stroke="currentColor" stroke-width="1.5" stroke-linecap="round" stroke-linejoin="round"/><path d="M10 12.5a3.125 3.125 0 100-6.25 3.125 3.125 0 000 6.25zM4.984 15.579a5.625 5.625 0 0110.032 0" stroke="currentColor" stroke-width="1.5" stroke-linecap="round" stroke-linejoin="round"/></svg><svg viewBox="0 0 16 14" id="user-followers" xmlns="http://www.w3.org/2000/svg"><path d="M10.5 2C12.434 2 14 3.566 14 5.5S12.434 9 10.5 9A3.499 3.499 0 017 5.5C7 3.566 8.566 2 10.5 2zm-.01 6.016a2.526 2.526 0 100-5.053 2.526 2.526 0 000 5.053z"/><path d="M15.95 10.828s-1.636-2.256-5.502-2.256c-3.867 0-5.352 2.256-5.352 2.256s-.151.368.196.563c.347.195.64 0 .64 0s1.715-1.93 4.49-1.93c2.777 0 4.128 1.442 4.586 1.844 0 0 .298.325.769.065.272-.174.223-.477.173-.542zM6.665 2.115s.472.236.295.648c-.179.41-.822.252-.822.252s-2.116-.498-3.2 1.26c-.805 1.462.12 2.919 1.626 3.345.81.217.986.15.986.15s.545.02.545.472c0 .45-.532.524-.532.524S3.1 8.73.983 10.806c0 0-.318.361-.744.098-.427-.263-.152-.641-.152-.641s1.055-1.418 3.148-1.95c0 0-1.63-.969-1.702-2.663-.074-1.693.99-2.56.99-2.56s1.537-1.51 4.142-.975z"/></svg><svg viewBox="0 0 16 14" id="user-following" xmlns="http://www.w3.org/2000/svg"><path d="M5.5 2A3.499 3.499 0 002 5.5C2 7.434 3.566 9 5.5 9S9 7.434 9 5.5 7.434 2 5.5 2zm.01 6.016a2.526 2.526 0 110-5.053 2.526 2.526 0 010 5.053z"/><path d="M.04 10.328S1.685 8 5.58 8c3.892 0 5.387 2.328 5.387 2.328s.152.381-.197.582c-.35.202-.644 0-.644 0S8.399 8.918 5.604 8.918 1.45 10.407.987 10.82c0 0-.299.336-.773.067-.275-.179-.225-.492-.175-.56zM9.335 2.115s-.472.236-.295.648c.179.41.822.252.822.252s2.116-.498 3.2 1.26c.805 1.462-.12 2.919-1.626 3.345-.81.217-.986.15-.986.15s-.545.02-.545.472c0 .45.532.524.532.524s2.464-.036 4.58 2.04c0 0 .318.361.744.098.427-.263.152-.641.152-.641s-1.055-1.418-3.148-1.95c0 0 1.63-.969 1.702-2.663.074-1.693-.99-2.56-.99-2.56s-1.537-1.51-4.142-.975z"/></svg><svg viewBox="0 0 14 14" id="user-logout" xmlns="http://www.w3.org/2000/svg"><g clip-path="url(#bjclip0_0_5689)"><path d="M4.686 13.983h-2.35A2.269 2.269 0 01.07 11.716V2.32A2.269 2.269 0 012.336.053h2.349a.7.7 0 110 1.4H2.336a.867.867 0 00-.866.866v9.398c0 .477.388.866.866.866h2.349a.7.7 0 01.001 1.4zm5.481-3.133a.7.7 0 01-.495-1.195l1.937-1.937H5.902a.7.7 0 110-1.4h5.707L9.672 4.38a.701.701 0 01.99-.99l3.133 3.132.002.002.002.002.001.002.002.001a.711.711 0 01.147.224v.002c.03.074.047.154.05.236v.053a.705.705 0 01-.05.236v.002a.711.711 0 01-.147.224l-.002.002-.001.001-.002.002-.002.002-3.132 3.133a.7.7 0 01-.496.204z"/></g><defs><clipPath id="bjclip0_0_5689"><path d="M0 0h14v14H0z"/></clipPath></defs></svg><svg viewBox="0 0 16 14" id="user-manager" xmlns="http://www.w3.org/2000/svg"><g clip-path="url(#bkclip0_0_5668)"><path d="M5.261.588H1.14C.509.588 0 1.035 0 1.586v3.62c0 .548.51.995 1.139.995h4.126c.629 0 1.139-.447 1.139-.999V1.586C6.4 1.035 5.89.588 5.26.588zm-.126 3.978c0 .27-.25.493-.562.493H1.827c-.309 0-.562-.219-.562-.493V2.158c0-.275.25-.493.562-.493h2.75c.309 0 .562.218.562.493v2.408h-.004zM5.261 8.387H1.14c-.63 0-1.139.447-1.139.998v3.62c0 .548.51.995 1.139.995h4.126c.629 0 1.139-.447 1.139-.999V9.385c-.004-.551-.514-.998-1.143-.998zm-.126 3.978c0 .27-.25.493-.562.493H1.827c-.309 0-.562-.22-.562-.493V9.953c0-.27.25-.493.562-.493h2.75c.309 0 .562.219.562.493v2.412h-.004zM14.117 8.387H9.995c-.63 0-1.139.447-1.139.998v3.62c0 .55.51.998 1.139.998h4.126c.629 0 1.139-.447 1.139-.999V9.385c-.004-.551-.514-.998-1.143-.998zm-.126 3.978c0 .27-.25.493-.562.493h-2.75c-.309 0-.562-.22-.562-.493V9.953c0-.27.25-.493.562-.493h2.75c.309 0 .562.219.562.493v2.412zM11.14.294L8.223 2.853a.914.914 0 000 1.41L11.14 6.82a1.255 1.255 0 001.608 0l2.917-2.559a.914.914 0 000-1.41L12.748.295a1.255 1.255 0 00-1.608 0zm3.119 2.892a.45.45 0 010 .695l-1.943 1.703a.616.616 0 01-.792 0L9.58 3.881a.45.45 0 010-.695l1.943-1.704a.616.616 0 01.792 0l1.943 1.704z"/></g><defs><clipPath id="bkclip0_0_5668"><path d="M0 0h16v14H0z"/></clipPath></defs></svg><svg viewBox="0 0 14 14" id="user-profile" xmlns="http://www.w3.org/2000/svg"><g clip-path="url(#blclip0_0_5673)"><path d="M7.016.477a5.078 5.078 0 00-5.08 5.079 5.078 5.078 0 005.08 5.08 5.078 5.078 0 005.08-5.08 5.078 5.078 0 00-5.08-5.08zm.016 8.73a3.666 3.666 0 11-.001-7.333 3.666 3.666 0 010 7.333z"/><path d="M.063 12.603S2.16 9.302 7.111 9.302s6.854 3.301 6.854 3.301.194.54-.25.826c-.445.285-.82 0-.82 0s-2.197-2.826-5.752-2.826c-3.556 0-5.286 2.111-5.873 2.699 0 0-.381.476-.984.095-.35-.254-.286-.698-.223-.794z"/></g><defs><clipPath id="blclip0_0_5673"><path d="M0 0h14v14H0z"/></clipPath></defs></svg><svg viewBox="0 0 14 14" id="user-settings" xmlns="http://www.w3.org/2000/svg"><g clip-path="url(#bmclip0_0_5684)"><path d="M6.28 13.998a.75.75 0 01-.736-.62l-.183-1.045-.971-.43-.788.567a.748.748 0 01-.959-.064l-1.018-.965a.735.735 0 01-.127-.916l.597-1.01-.36-.795-1.091-.223a.742.742 0 01-.596-.735V6.364a.74.74 0 01.55-.733l1.074-.294.337-.925-.516-.79a.74.74 0 01.096-.93l1.083-1.105a.752.752 0 01.971-.088l.818.577.84-.42.26-1.034a.749.749 0 01.725-.567H7.75a.75.75 0 01.735.619l.184 1.036.925.38.757-.546a.746.746 0 01.95.053l1.108.965.008.007a.737.737 0 01.097.956l-.596.866.375.937 1.028.213c.35.071.601.38.596.736v1.352a.742.742 0 01-.594.735l-1.014.211-.381.883.572.823a.738.738 0 01-.067.937l-1.028 1.098a.753.753 0 01-.969.11l-.87-.587-.921.415-.163 1.106a.746.746 0 01-.737.635h-1.46c-.002.003-.002.003-.005.003zm.123-.89h1.21l.155-1.06a.736.736 0 01.432-.57L9.264 11a.757.757 0 01.74.064l.827.556.864-.92-.553-.793a.746.746 0 01-.07-.733l.44-1.013a.744.744 0 01.527-.434h.002l.976-.204v-1.13l-.993-.205a.74.74 0 01-.541-.458l-.43-1.08a.73.73 0 01.081-.695l.566-.823-.919-.8-.727.525a.748.748 0 01-.738.083L8.25 2.503a.742.742 0 01-.453-.56L7.62.944H6.401l-.25.996a.755.755 0 01-.392.482l-.99.496a.752.752 0 01-.747-.06l-.004-.002-.793-.56-.92.94.493.756a.742.742 0 01.074.66l-.386 1.06a.74.74 0 01-.506.465l-1.038.285V7.65l1.043.214a.75.75 0 01.534.422l.425.934c.1.219.086.475-.038.681l-.578.978.847.804.759-.548a.749.749 0 01.744-.076l1.112.493a.74.74 0 01.437.555l.176 1.001z"/><path d="M6.981 10.418c-1.882 0-3.412-1.52-3.412-3.392 0-1.872 1.53-3.392 3.412-3.392s3.412 1.52 3.412 3.392c0 1.871-1.532 3.392-3.412 3.392zm0-5.895a2.512 2.512 0 00-2.517 2.503 2.512 2.512 0 002.517 2.502 2.512 2.512 0 002.517-2.502 2.512 2.512 0 00-2.517-2.503z"/></g><defs><clipPath id="bmclip0_0_5684"><path d="M0 0h14v14H0z"/></clipPath></defs></svg><svg viewBox="0 0 16 16" id="users" xmlns="http://www.w3.org/2000/svg"><path d="M5.5 10a3.25 3.25 0 100-6.5 3.25 3.25 0 000 6.5zM9.713 3.619c.287-.078.584-.118.881-.119a3.25 3.25 0 110 6.5M1 12.338a5.5 5.5 0 019 0M10.594 10a5.494 5.494 0 014.5 2.338" stroke="currentColor" stroke-width="1.5" stroke-linecap="round" stroke-linejoin="round"/></svg><svg viewBox="0 0 20 20" id="xhamster" xmlns="http://www.w3.org/2000/svg"><g clip-path="url(#boclip0_1937_336)" fill-rule="evenodd" clip-rule="evenodd"><path d="M11.105 14.094c.217 0 .434-.022.65-.087.154-.05.277-.092.383-.13.405-.14.56-.195 1.179-.195-.78 1.778-1.974 3.08-3.34 3.08h-.043c-1.367 0-2.581-1.324-3.34-3.08.659 0 .819.055 1.234.2.103.036.223.078.37.125.217.065.434.109.651.087a.925.925 0 00.824-.499c.044-.065.087-.065.26-.065h.087c.174 0 .239 0 .26.065a.95.95 0 00.825.499zM9.39 16.328c.13.043.26.065.412.087l.022-2.17c-.412.261-.91.391-1.41.326.13.477.304.976.5 1.431.021.066.064.13.13.174.108.065.216.13.346.152zm1.584-.174a.523.523 0 00.13-.173c.217-.456.368-.933.52-1.432a2.018 2.018 0 01-1.41-.325v2.169a1.4 1.4 0 00.413-.087c.108-.022.238-.087.347-.152z"/><path d="M18.16 7.586c.666.487 1.209.885 1.662 1.91.13.347.196.694.174 1.063 0 .607-.239 1.128-.542 1.757-.694 1.41-2.104 3.014-3.058 3.86-1.844 1.605-4.164 2.754-6.181 2.884H9.78c-2.017-.108-4.337-1.258-6.18-2.884-.955-.824-2.365-2.45-3.059-3.86-.325-.63-.542-1.15-.542-1.757 0-.369.065-.716.195-1.063.447-1.01.981-1.411 1.618-1.89l.226-.17c.282-.152.52-.369.715-.63a.911.911 0 00.13-.455c0-.195-.043-.368-.108-.563a7.195 7.195 0 01-.412-2.343c0-1.106.455-2.884 1.843-2.884.196 0 .39.022.586.087.304.13.585.325.802.585.099.106.26.326.442.572.337.458.741 1.006.925 1.076.043.022.108.022.173 0a9.35 9.35 0 012.885-.477c.997 0 1.952.174 2.884.477.043.022.108.022.174 0 .183-.07.587-.618.924-1.076a8.43 8.43 0 01.442-.572c.217-.26.477-.455.802-.585.174-.065.369-.087.564-.087 1.388 0 1.844 1.778 1.822 2.884 0 .803-.152 1.584-.412 2.343a1.63 1.63 0 00-.108.563c0 .174.043.326.13.456.195.238.433.455.715.629l.204.15zm-1.873-4.77c-.412-.282-1.062.152-1.344.478-.434.477-.543 1.084-.195 1.67.347.498.78.954 1.28 1.3l.06-.157c.082-.216.155-.409.243-.601.13-.282.217-.586.282-.89.086-.477.152-1.518-.326-1.8zM14.77 7.262a1.934 1.934 0 00-.954-1.561c-.455-.26-1.258-.347-1.735 0-.369.347-.434.976-.26 1.475.065.151.13.282.217.412 0-.76.52-1.367 1.3-1.345.326.022.63.174.825.434.347.412.369.997.043 1.431.152-.022.282-.065.369-.173a.948.948 0 00.195-.673zM7.981 3.424a.596.596 0 00-.347.217c-.022.065-.022.13.043.173.174.195.39.39.608.564.715.585 1.17 1.063 1.41 1.995.13.477.108.976-.044 1.453-.136.398-.35.712-.56 1.02-.19.282-.379.558-.503.889a1.337 1.337 0 00-.043 1.04c.238.5.932.586 1.431.586h.087c.477 0 1.193-.086 1.431-.585.13-.347.109-.716-.043-1.041-.122-.324-.31-.596-.499-.871-.217-.315-.437-.633-.564-1.038a2.553 2.553 0 01-.043-1.453c.239-.954.694-1.41 1.41-1.995a2.98 2.98 0 00.607-.564.24.24 0 000-.173.596.596 0 00-.347-.217 7.481 7.481 0 00-1.974-.282h-.086c-.651 0-1.323.108-1.974.282zm-.108 2.299c-.434-.37-1.237-.304-1.692-.022-.542.347-.91.932-.998 1.583a.948.948 0 00.196.672.535.535 0 00.368.174 1.142 1.142 0 01.044-1.432c.195-.26.498-.412.824-.433.78-.044 1.3.585 1.3 1.344.11-.13.174-.26.218-.412.173-.52.13-1.15-.26-1.474zm-2.82-2.451c-.26-.304-.91-.738-1.344-.477-.478.303-.413 1.323-.326 1.8.065.303.152.607.282.889.08.16.148.342.221.54l.083.219a5.211 5.211 0 001.28-1.301c.346-.564.238-1.171-.196-1.67zm11.885 10.93c.759-.954 1.735-2.32 2.039-3.188.13-.347.13-.737.021-1.106a3.354 3.354 0 00-1.236-1.561.833.833 0 00-.542-.195c-.383.057-.614.538-.783.889l-.063.13c.054.053.107.1.16.144.074.065.145.126.209.203.737.802.629 1.822.173 2.82-.629 1.322-1.865 2.623-2.95 3.556.76-1.822.456-4.142-1.387-5.183-.174 2.646-5.314 2.255-5.119.021-1.865 1.063-2.147 3.384-1.388 5.184-1.062-.955-2.298-2.256-2.927-3.557-.456-.976-.564-2.017.173-2.82.068-.067.136-.13.201-.189.06-.054.116-.106.168-.157a9.186 9.186 0 01-.063-.13c-.169-.351-.4-.832-.783-.89a.833.833 0 00-.542.195c-.564.39-.998.933-1.236 1.562-.13.347-.13.737 0 1.084.303.868 1.258 2.234 2.038 3.188a10.756 10.756 0 002.885 2.538c1.106.672 2.71 1.323 4.034 1.366 1.323-.043 2.928-.694 4.034-1.366a11.508 11.508 0 002.884-2.538z"/></g><defs><clipPath id="boclip0_1937_336"><path d="M0 0h20v20H0z"/></clipPath></defs></svg></svg>