<?xml version="1.0" encoding="utf-8"?><svg viewBox="0 0 80 80" xmlns="http://www.w3.org/2000/svg" xmlns:xlink="http://www.w3.org/1999/xlink"><style>:root>svg{display:none}:root>svg:target{display:block}</style><svg fill="none" viewBox="0 0 32 32" id="button-hd" xmlns="http://www.w3.org/2000/svg"><path d="M14.724 20.5h-1.668v-3.576h-2.892V20.5H8.496v-8.544h1.668v3.492h2.892v-3.492h1.668V20.5zm8.095-6.156c.064.416.096 1.044.096 1.884 0 .84-.032 1.472-.096 1.896a2.48 2.48 0 01-.444 1.128c-.6.832-1.46 1.248-2.58 1.248H16.71v-8.544h3.084c1.12 0 1.98.416 2.58 1.248.24.336.388.716.444 1.14zm-1.632 3.42c.04-.304.06-.816.06-1.536 0-.72-.02-1.232-.06-1.536-.04-.304-.136-.544-.288-.72-.28-.352-.696-.528-1.248-.528h-1.272v5.568h1.272c.552 0 .968-.176 1.248-.528.152-.176.248-.416.288-.72z" fill="#FEFEFE"/><rect x=".5" y=".5" width="31" height="31" rx="1.5" stroke="#FEFEFE"/></svg><svg fill="none" viewBox="0 0 32 32" id="button-sd" xmlns="http://www.w3.org/2000/svg"><path d="M15.016 17.98c0 .808-.296 1.444-.888 1.908-.592.456-1.352.684-2.28.684-.68 0-1.268-.084-1.764-.252a3.624 3.624 0 01-1.356-.876l1.08-1.08c.48.48 1.164.72 2.052.72.496 0 .872-.092 1.128-.276.264-.184.396-.448.396-.792 0-.296-.088-.532-.264-.708-.152-.144-.408-.24-.768-.288l-1.02-.156c-.72-.104-1.272-.34-1.656-.708-.408-.4-.612-.96-.612-1.68 0-.776.268-1.4.804-1.872.536-.48 1.26-.72 2.172-.72 1.152 0 2.072.332 2.76.996l-1.056 1.044c-.4-.392-.984-.588-1.752-.588-.424 0-.748.104-.972.312a.983.983 0 00-.336.768c0 .256.08.46.24.612.184.168.444.276.78.324l1.02.156c.728.104 1.272.328 1.632.672.44.408.66 1.008.66 1.8zm7.678-3.636c.064.416.096 1.044.096 1.884 0 .84-.032 1.472-.096 1.896a2.48 2.48 0 01-.444 1.128c-.6.832-1.46 1.248-2.58 1.248h-3.084v-8.544h3.084c1.12 0 1.98.416 2.58 1.248.24.336.388.716.444 1.14zm-1.632 3.42c.04-.304.06-.816.06-1.536 0-.72-.02-1.232-.06-1.536-.04-.304-.136-.544-.288-.72-.28-.352-.696-.528-1.248-.528h-1.272v5.568h1.272c.552 0 .968-.176 1.248-.528.152-.176.248-.416.288-.72z" fill="#FEFEFE"/><rect x=".5" y=".5" width="31" height="31" rx="1.5" stroke="#FEFEFE"/></svg><svg fill="none" viewBox="0 0 16 16" id="calendar" xmlns="http://www.w3.org/2000/svg"><path d="M13 2.5H3a.5.5 0 00-.5.5v10a.5.5 0 00.5.5h10a.5.5 0 00.5-.5V3a.5.5 0 00-.5-.5zM11 1.5v2M5 1.5v2M2.5 5.5h11" stroke="#7D7D7D" stroke-width="1.5" stroke-linecap="round" stroke-linejoin="round"/></svg><svg fill="none" viewBox="0 0 80 80" id="camera" xmlns="http://www.w3.org/2000/svg"><path d="M7.5 18.75h40a10 10 0 0110 10v30a2.5 2.5 0 01-2.5 2.5H15a10 10 0 01-10-10v-30a2.5 2.5 0 012.5-2.5v0zM57.5 35L75 25v30L57.5 45" stroke="currentColor" stroke-width="1.5" stroke-linecap="round" stroke-linejoin="round"/></svg><svg fill="none" viewBox="0 0 16 16" id="caret-right" xmlns="http://www.w3.org/2000/svg"><path d="M6 3l5 5-5 5" stroke="#E82BD5" stroke-width="1.5" stroke-linecap="round" stroke-linejoin="round"/></svg><svg fill="none" viewBox="0 0 64 64" id="check-big" xmlns="http://www.w3.org/2000/svg"><path d="M32 6a26 26 0 1026 26A26.05 26.05 0 0032 6zm12.375 21.45l-14.65 14c-.379.356-.88.553-1.4.55a1.926 1.926 0 01-1.375-.55l-7.325-7a2 2 0 112.75-2.9l5.95 5.675 13.3-12.675a2 2 0 012.75 2.9z" fill="#71F36F"/></svg><svg fill="none" viewBox="0 0 20 20" id="check-circle" xmlns="http://www.w3.org/2000/svg"><path d="M10 .25A9.75 9.75 0 1019.75 10 9.769 9.769 0 0010 .25zm4.64 8.044l-5.493 5.25a.76.76 0 01-.525.206.721.721 0 01-.516-.206L5.36 10.919A.75.75 0 116.391 9.83l2.23 2.128 4.988-4.753a.75.75 0 011.032 1.088z" fill="#71F36F"/></svg><svg fill="none" viewBox="0 0 16 16" id="clock" xmlns="http://www.w3.org/2000/svg"><path d="M8 14A6 6 0 108 2a6 6 0 000 12z" stroke="#7D7D7D" stroke-width="1.5" stroke-linecap="round" stroke-linejoin="round"/><path d="M8 4.5V8h3.5" stroke="#7D7D7D" stroke-width="1.5" stroke-linecap="round" stroke-linejoin="round"/></svg><svg fill="none" viewBox="0 0 16 16" id="copy" xmlns="http://www.w3.org/2000/svg"><path d="M10.5 10.5h3v-8h-8v3" stroke="#E82BD5" stroke-width="1.5" stroke-linecap="round" stroke-linejoin="round"/><path d="M10.5 5.5h-8v8h8v-8z" stroke="#E82BD5" stroke-width="1.5" stroke-linecap="round" stroke-linejoin="round"/></svg><svg fill="none" viewBox="0 0 20 20" id="discord" xmlns="http://www.w3.org/2000/svg"><path d="M16.93 3.463A16.491 16.491 0 0012.86 2.2a.062.062 0 00-.066.031c-.175.313-.37.72-.506 1.041a15.226 15.226 0 00-4.573 0 10.538 10.538 0 00-.515-1.04.064.064 0 00-.065-.032 16.447 16.447 0 00-4.07 1.263.058.058 0 00-.028.023C.444 7.36-.266 11.138.083 14.869a.069.069 0 00.026.047 16.586 16.586 0 004.994 2.525.064.064 0 00.07-.023c.385-.526.728-1.08 1.022-1.662a.063.063 0 00-.035-.088 10.917 10.917 0 01-1.56-.744.064.064 0 01-.007-.106c.105-.079.21-.16.31-.243a.062.062 0 01.065-.009c3.273 1.495 6.817 1.495 10.051 0a.062.062 0 01.066.008c.1.083.204.165.31.244a.064.064 0 01-.005.106c-.499.292-1.017.538-1.561.743a.064.064 0 00-.034.089 13.3 13.3 0 001.02 1.661.063.063 0 00.07.024 16.532 16.532 0 005.003-2.525.065.065 0 00.026-.046c.417-4.314-.699-8.061-2.957-11.383a.05.05 0 00-.026-.024zM6.684 12.597c-.985 0-1.797-.904-1.797-2.015 0-1.111.796-2.016 1.797-2.016 1.01 0 1.814.912 1.798 2.016 0 1.11-.796 2.015-1.798 2.015zm6.646 0c-.986 0-1.797-.904-1.797-2.015 0-1.111.796-2.016 1.797-2.016 1.009 0 1.813.912 1.797 2.016 0 1.11-.788 2.015-1.797 2.015z" fill="#fff"/></svg><svg fill="none" viewBox="0 0 30 29" id="download" xmlns="http://www.w3.org/2000/svg"><g clip-path="url(#akclip0_1_6430)"><path d="M3.882 24.647H26.235c.353 0 .706.294.706 1s-.53.823-.588.823H4c-.647 0-1-.176-1-.882s.53-.941.882-.941zm12.412-7.06l6.118-8.058c.412-.412 1-.53 1.294-.235l.176.176c.47.412.236.941 0 1.177l-8.235 10.059c-.176.176-.412.176-.588 0l-8.353-10.06c-.294-.293-.353-.764.059-1.176.411-.411.94-.294 1.353.118l6.411 8.118V-1.177h1.706" fill="#fff"/></g><defs><clipPath id="akclip0_1_6430"><path fill="#fff" d="M0 0h30v28.235H0z"/></clipPath></defs></svg><svg fill="none" viewBox="0 0 32 32" id="favorite" xmlns="http://www.w3.org/2000/svg"><path d="M16.713 26.488l10.125-10.125c2.487-2.5 2.85-6.588.5-9.2A6.5 6.5 0 0017.9 6.9L16 8.813l-1.637-1.65c-2.5-2.488-6.588-2.85-9.2-.5A6.5 6.5 0 004.9 16.1l10.388 10.388a1.012 1.012 0 001.425 0v0z" stroke="currentColor" stroke-width="1.5" stroke-linecap="round" stroke-linejoin="round"/></svg><svg fill="none" viewBox="0 0 32 32" id="fs-open" xmlns="http://www.w3.org/2000/svg"><path d="M21 6h5v5M11 26H6v-5M26 21v5h-5M6 11V6h5" stroke="#fff" stroke-width="1.5" stroke-linecap="round" stroke-linejoin="round"/></svg><svg fill="none" viewBox="0 0 32 32" id="fs-opened" xmlns="http://www.w3.org/2000/svg"><path d="M26 12h-6V6M6 20h6v6M20 26v-6h6M12 6v6H6" stroke="#FEFEFE" stroke-width="1.5" stroke-linecap="round" stroke-linejoin="round"/></svg><svg fill="none" viewBox="0 0 16 16" id="gear" xmlns="http://www.w3.org/2000/svg"><path d="M8 11a3 3 0 100-6 3 3 0 000 6z" stroke="#E82BD5" stroke-width="1.5" stroke-linecap="round" stroke-linejoin="round"/><path d="M12.338 5.044c.15.215.282.443.394.68l1.618.9c.202.906.205 1.845.007 2.75l-1.625.9a4.606 4.606 0 01-.394.682l.031 1.856a6.502 6.502 0 01-2.381 1.382l-1.594-.957a5.505 5.505 0 01-.787 0l-1.588.95c-.886-.28-1.7-.749-2.387-1.375l.03-1.85a5.007 5.007 0 01-.393-.687l-1.619-.9a6.375 6.375 0 01-.006-2.75l1.625-.9a4.6 4.6 0 01.394-.681l-.031-1.857a6.5 6.5 0 012.38-1.38l1.595.955a5.52 5.52 0 01.787 0l1.588-.95c.886.28 1.7.75 2.387 1.375l-.031 1.857z" stroke="#E82BD5" stroke-width="1.5" stroke-linecap="round" stroke-linejoin="round"/></svg><svg fill="none" viewBox="0 0 32 20" id="handle-lower" xmlns="http://www.w3.org/2000/svg"><g filter="url(#apfilter0_b_1_12415)"><rect width="32" height="20" rx="4" fill="#fff" fill-opacity=".5"/><g filter="url(#apfilter1_d_1_12415)"><path d="M11.645 5.903a.394.394 0 00-.412.08l-3.75 3.75a.38.38 0 000 .534l3.75 3.75a.39.39 0 00.412.08.374.374 0 00.23-.347v-7.5a.376.376 0 00-.23-.347z" fill="#FEFEFE"/></g><g filter="url(#apfilter2_d_1_12415)"><path d="M24.517 9.733l-3.75-3.75a.394.394 0 00-.412-.08.375.375 0 00-.23.347v7.5a.376.376 0 00.23.347.39.39 0 00.412-.08l3.75-3.75a.38.38 0 000-.534z" fill="#FEFEFE"/></g></g><defs><filter id="apfilter0_b_1_12415" x="-15" y="-15" width="62" height="50" filterUnits="userSpaceOnUse" color-interpolation-filters="sRGB"><feFlood flood-opacity="0" result="BackgroundImageFix"/><feGaussianBlur in="BackgroundImageFix" stdDeviation="7.5"/><feComposite in2="SourceAlpha" operator="in" result="effect1_backgroundBlur_1_12415"/><feBlend in="SourceGraphic" in2="effect1_backgroundBlur_1_12415" result="shape"/></filter><filter id="apfilter1_d_1_12415" x="2" y="4" width="16" height="16" filterUnits="userSpaceOnUse" color-interpolation-filters="sRGB"><feFlood flood-opacity="0" result="BackgroundImageFix"/><feColorMatrix in="SourceAlpha" values="0 0 0 0 0 0 0 0 0 0 0 0 0 0 0 0 0 0 127 0" result="hardAlpha"/><feOffset dy="2"/><feGaussianBlur stdDeviation="1"/><feColorMatrix values="0 0 0 0 0 0 0 0 0 0 0 0 0 0 0 0 0 0 0.25 0"/><feBlend in2="BackgroundImageFix" result="effect1_dropShadow_1_12415"/><feBlend in="SourceGraphic" in2="effect1_dropShadow_1_12415" result="shape"/></filter><filter id="apfilter2_d_1_12415" x="14" y="4" width="16" height="16" filterUnits="userSpaceOnUse" color-interpolation-filters="sRGB"><feFlood flood-opacity="0" result="BackgroundImageFix"/><feColorMatrix in="SourceAlpha" values="0 0 0 0 0 0 0 0 0 0 0 0 0 0 0 0 0 0 127 0" result="hardAlpha"/><feOffset dy="2"/><feGaussianBlur stdDeviation="1"/><feColorMatrix values="0 0 0 0 0 0 0 0 0 0 0 0 0 0 0 0 0 0 0.25 0"/><feBlend in2="BackgroundImageFix" result="effect1_dropShadow_1_12415"/><feBlend in="SourceGraphic" in2="effect1_dropShadow_1_12415" result="shape"/></filter></defs></svg><svg fill="none" viewBox="0 0 32 20" id="handle-upper" xmlns="http://www.w3.org/2000/svg"><g filter="url(#aqfilter0_b_1_12412)"><rect width="32" height="20" rx="4" fill="#fff" fill-opacity=".5"/><g filter="url(#aqfilter1_d_1_12412)"><path d="M11.645 5.903a.394.394 0 00-.412.08l-3.75 3.75a.38.38 0 000 .534l3.75 3.75a.39.39 0 00.412.08.374.374 0 00.23-.347v-7.5a.376.376 0 00-.23-.347z" fill="#FEFEFE"/></g><g filter="url(#aqfilter2_d_1_12412)"><path d="M24.517 9.733l-3.75-3.75a.394.394 0 00-.412-.08.375.375 0 00-.23.347v7.5a.376.376 0 00.23.347.39.39 0 00.412-.08l3.75-3.75a.38.38 0 000-.534z" fill="#FEFEFE"/></g></g><defs><filter id="aqfilter0_b_1_12412" x="-15" y="-15" width="62" height="50" filterUnits="userSpaceOnUse" color-interpolation-filters="sRGB"><feFlood flood-opacity="0" result="BackgroundImageFix"/><feGaussianBlur in="BackgroundImageFix" stdDeviation="7.5"/><feComposite in2="SourceAlpha" operator="in" result="effect1_backgroundBlur_1_12412"/><feBlend in="SourceGraphic" in2="effect1_backgroundBlur_1_12412" result="shape"/></filter><filter id="aqfilter1_d_1_12412" x="2" y="4" width="16" height="16" filterUnits="userSpaceOnUse" color-interpolation-filters="sRGB"><feFlood flood-opacity="0" result="BackgroundImageFix"/><feColorMatrix in="SourceAlpha" values="0 0 0 0 0 0 0 0 0 0 0 0 0 0 0 0 0 0 127 0" result="hardAlpha"/><feOffset dy="2"/><feGaussianBlur stdDeviation="1"/><feColorMatrix values="0 0 0 0 0 0 0 0 0 0 0 0 0 0 0 0 0 0 0.25 0"/><feBlend in2="BackgroundImageFix" result="effect1_dropShadow_1_12412"/><feBlend in="SourceGraphic" in2="effect1_dropShadow_1_12412" result="shape"/></filter><filter id="aqfilter2_d_1_12412" x="14" y="4" width="16" height="16" filterUnits="userSpaceOnUse" color-interpolation-filters="sRGB"><feFlood flood-opacity="0" result="BackgroundImageFix"/><feColorMatrix in="SourceAlpha" values="0 0 0 0 0 0 0 0 0 0 0 0 0 0 0 0 0 0 127 0" result="hardAlpha"/><feOffset dy="2"/><feGaussianBlur stdDeviation="1"/><feColorMatrix values="0 0 0 0 0 0 0 0 0 0 0 0 0 0 0 0 0 0 0.25 0"/><feBlend in2="BackgroundImageFix" result="effect1_dropShadow_1_12412"/><feBlend in="SourceGraphic" in2="effect1_dropShadow_1_12412" result="shape"/></filter></defs></svg><svg fill="none" viewBox="0 0 32 32" id="hd" xmlns="http://www.w3.org/2000/svg"><path d="M14.724 20.5h-1.668v-3.576h-2.892V20.5H8.496v-8.544h1.668v3.492h2.892v-3.492h1.668V20.5zm8.095-6.156c.064.416.096 1.044.096 1.884 0 .84-.032 1.472-.096 1.896a2.48 2.48 0 01-.444 1.128c-.6.832-1.46 1.248-2.58 1.248H16.71v-8.544h3.084c1.12 0 1.98.416 2.58 1.248.24.336.388.716.444 1.14zm-1.632 3.42c.04-.304.06-.816.06-1.536 0-.72-.02-1.232-.06-1.536-.04-.304-.136-.544-.288-.72-.28-.352-.696-.528-1.248-.528h-1.272v5.568h1.272c.552 0 .968-.176 1.248-.528.152-.176.248-.416.288-.72z" fill="#FEFEFE"/><rect x=".5" y=".5" width="31" height="31" rx="1.5" stroke="#FEFEFE"/></svg><svg fill="none" viewBox="0 0 16 16" id="lock" xmlns="http://www.w3.org/2000/svg"><path d="M8 10a1.25 1.25 0 100-2.5A1.25 1.25 0 008 10zM8 10v1.5" stroke="#C12A4E" stroke-width="1.5" stroke-linecap="round" stroke-linejoin="round"/><path d="M13 5.5H3a.5.5 0 00-.5.5v7a.5.5 0 00.5.5h10a.5.5 0 00.5-.5V6a.5.5 0 00-.5-.5zM5.75 5.5V3.25a2.25 2.25 0 114.5 0V5.5" stroke="#C12A4E" stroke-width="1.5" stroke-linecap="round" stroke-linejoin="round"/></svg><svg fill="none" viewBox="0 0 24 24" id="more" xmlns="http://www.w3.org/2000/svg"><path d="M12 14.25a2.25 2.25 0 100-4.5 2.25 2.25 0 000 4.5zM12 6.75a2.25 2.25 0 100-4.5 2.25 2.25 0 000 4.5zM12 21.75a2.25 2.25 0 100-4.5 2.25 2.25 0 000 4.5z" stroke="#7D7D7D" stroke-width="1.5" stroke-linecap="round" stroke-linejoin="round"/></svg><svg fill="none" viewBox="0 0 24 24" id="more-active" xmlns="http://www.w3.org/2000/svg"><path d="M12 14.25a2.25 2.25 0 100-4.5 2.25 2.25 0 000 4.5zM12 6.75a2.25 2.25 0 100-4.5 2.25 2.25 0 000 4.5zM12 21.75a2.25 2.25 0 100-4.5 2.25 2.25 0 000 4.5z" stroke="#E82BD5" stroke-width="1.5" stroke-linecap="round" stroke-linejoin="round"/></svg><svg fill="none" viewBox="0 0 32 32" id="muted" xmlns="http://www.w3.org/2000/svg"><path d="M10 21H4a1 1 0 01-1-1v-8a1 1 0 011-1h6l9-7v24l-9-7zM30 13l-6 6M30 19l-6-6M10 11v10" stroke="#fff" stroke-width="1.5" stroke-linecap="round" stroke-linejoin="round"/></svg><svg fill="none" viewBox="0 0 32 32" id="plus" xmlns="http://www.w3.org/2000/svg"><path d="M5 16h22M16 5v22" stroke="currentColor" stroke-width="1.5" stroke-linecap="round" stroke-linejoin="round"/></svg><svg fill="none" viewBox="0 0 16 16" id="plus-circle" xmlns="http://www.w3.org/2000/svg"><path d="M8 14A6 6 0 108 2a6 6 0 000 12zM5.5 8h5M8 5.5v5" stroke="#E82BD5" stroke-width="1.5" stroke-linecap="round" stroke-linejoin="round"/></svg><svg fill="none" viewBox="0 0 24 24" id="plus-round" xmlns="http://www.w3.org/2000/svg"><path d="M18 12.998h-5v5a1 1 0 01-2 0v-5H6a1 1 0 110-2h5v-5a1 1 0 012 0v5h5a1 1 0 010 2z" fill="currentColor"/></svg><svg fill="none" viewBox="0 0 10 10" id="reply-left" xmlns="http://www.w3.org/2000/svg"><path d="M9.062 5.625a2.504 2.504 0 01-2.5 2.5H3.125a.312.312 0 110-.625h3.437a1.875 1.875 0 100-3.75H3.437v1.562a.312.312 0 01-.312.313.324.324 0 01-.223-.09L1.027 3.66a.316.316 0 010-.445L2.902 1.34a.328.328 0 01.344-.067.312.312 0 01.191.29v1.562h3.125a2.504 2.504 0 012.5 2.5z" fill="#FEFEFE"/></svg><svg fill="none" viewBox="0 0 32 32" id="sd" xmlns="http://www.w3.org/2000/svg"><path d="M15.016 17.98c0 .808-.296 1.444-.888 1.908-.592.456-1.352.684-2.28.684-.68 0-1.268-.084-1.764-.252a3.624 3.624 0 01-1.356-.876l1.08-1.08c.48.48 1.164.72 2.052.72.496 0 .872-.092 1.128-.276.264-.184.396-.448.396-.792 0-.296-.088-.532-.264-.708-.152-.144-.408-.24-.768-.288l-1.02-.156c-.72-.104-1.272-.34-1.656-.708-.408-.4-.612-.96-.612-1.68 0-.776.268-1.4.804-1.872.536-.48 1.26-.72 2.172-.72 1.152 0 2.072.332 2.76.996l-1.056 1.044c-.4-.392-.984-.588-1.752-.588-.424 0-.748.104-.972.312a.983.983 0 00-.336.768c0 .256.08.46.24.612.184.168.444.276.78.324l1.02.156c.728.104 1.272.328 1.632.672.44.408.66 1.008.66 1.8zm7.678-3.636c.064.416.096 1.044.096 1.884 0 .84-.032 1.472-.096 1.896a2.48 2.48 0 01-.444 1.128c-.6.832-1.46 1.248-2.58 1.248h-3.084v-8.544h3.084c1.12 0 1.98.416 2.58 1.248.24.336.388.716.444 1.14zm-1.632 3.42c.04-.304.06-.816.06-1.536 0-.72-.02-1.232-.06-1.536-.04-.304-.136-.544-.288-.72-.28-.352-.696-.528-1.248-.528h-1.272v5.568h1.272c.552 0 .968-.176 1.248-.528.152-.176.248-.416.288-.72z" fill="#FEFEFE"/><rect x=".5" y=".5" width="31" height="31" rx="1.5" stroke="#FEFEFE"/></svg><svg fill="none" viewBox="0 0 32 32" id="share" xmlns="http://www.w3.org/2000/svg"><path d="M8 20a4 4 0 100-8 4 4 0 000 8zM22 29a4 4 0 100-8 4 4 0 000 8zM22 11a4 4 0 100-8 4 4 0 000 8zM18.637 9.163l-7.275 4.675M11.362 18.163l7.275 4.675" stroke="#FEFEFE" stroke-width="1.5" stroke-linecap="round" stroke-linejoin="round"/></svg><svg fill="none" viewBox="0 0 32 32" id="sound" xmlns="http://www.w3.org/2000/svg"><path d="M27.362 9.638a8.985 8.985 0 010 12.725M10 21H4a1 1 0 01-1-1v-8a1 1 0 011-1h6l9-7v24l-9-7zM10 11v10M23.825 13.175a3.987 3.987 0 010 5.65" stroke="#FEFEFE" stroke-width="1.5" stroke-linecap="round" stroke-linejoin="round"/></svg><svg fill="none" viewBox="0 0 16 16" id="trash" xmlns="http://www.w3.org/2000/svg"><path d="M13.5 3.5h-11M6.5 6.5v4M9.5 6.5v4M12.5 3.5V13a.5.5 0 01-.5.5H4a.5.5 0 01-.5-.5V3.5M10.5 3.5v-1a1 1 0 00-1-1h-3a1 1 0 00-1 1v1" stroke="#D8D8D8" stroke-width="1.5" stroke-linecap="round" stroke-linejoin="round"/></svg><svg fill="none" viewBox="0 0 16 16" id="unlock" xmlns="http://www.w3.org/2000/svg"><path d="M13 5.5H3a.5.5 0 00-.5.5v7a.5.5 0 00.5.5h10a.5.5 0 00.5-.5V6a.5.5 0 00-.5-.5zM5.75 5.5V3.25a2.25 2.25 0 114.5 0" stroke="#71F36F" stroke-width="1.5" stroke-linecap="round" stroke-linejoin="round"/><path d="M8 10.125a.625.625 0 100-1.25.625.625 0 000 1.25z" fill="#71F36F"/></svg><svg fill="none" viewBox="0 0 20 20" id="warning" xmlns="http://www.w3.org/2000/svg"><path d="M10 1.875A8.125 8.125 0 1018.125 10 8.14 8.14 0 0010 1.875zM9.375 6.25a.625.625 0 011.25 0v4.375a.624.624 0 11-1.25 0V6.25zM10 14.375a.938.938 0 110-1.875.938.938 0 010 1.875z" fill="#E82B2B"/></svg><svg fill="none" viewBox="0 0 64 64" id="warning-big" xmlns="http://www.w3.org/2000/svg"><path d="M32 6a26 26 0 1026 26A26.05 26.05 0 0032 6zm-2 14a2 2 0 014 0v14a2 2 0 01-4 0V20zm2 26a3 3 0 110-5.999A3 3 0 0132 46z" fill="#F2C94C" fill-opacity=".5"/></svg></svg>