<?xml version="1.0" encoding="utf-8"?><svg viewBox="0 0 33 25" xmlns="http://www.w3.org/2000/svg" xmlns:xlink="http://www.w3.org/1999/xlink"><style>:root>svg{display:none}:root>svg:target{display:block}</style><svg fill="none" viewBox="0 0 21 13" id="angle-down" xmlns="http://www.w3.org/2000/svg"><path d="M19 2l-8.793 8L2 2" stroke="#4D4D4D" stroke-width="3"/></svg><svg fill="none" viewBox="0 0 24 24" id="picture" xmlns="http://www.w3.org/2000/svg"><g clip-path="url(#bclip0_1_19224)" fill="currentColor"><path d="M22.285 0H1.715C.769 0 0 .77 0 1.715v20.57C0 23.232.768 24 1.715 24h20.57c.947 0 1.715-.768 1.715-1.715V1.715C24 .769 23.23 0 22.285 0zm.15 22.285a.15.15 0 01-.15.15H1.715a.15.15 0 01-.15-.15V1.715a.15.15 0 01.15-.15h20.57a.15.15 0 01.15.15v20.57z"/><path d="M15.252 10.514a.782.782 0 00-1.32 0l-3.774 5.924-1.932-3.032a.783.783 0 00-1.32 0l-4.023 6.312a.782.782 0 00.66 1.204h16.914a.782.782 0 00.66-1.204l-5.865-9.204zM4.97 19.356l2.596-4.073 1.931 3.032a.783.783 0 001.32 0l3.775-5.924 4.438 6.965H4.97zM7.252 10.33a3.709 3.709 0 003.705-3.704 3.709 3.709 0 00-3.705-3.704 3.709 3.709 0 00-3.704 3.704 3.709 3.709 0 003.704 3.705zm0-5.843c1.18 0 2.14.96 2.14 2.14 0 1.179-.96 2.138-2.14 2.138-1.18 0-2.139-.96-2.139-2.139 0-1.18.96-2.139 2.14-2.139z"/></g><defs><clipPath id="bclip0_1_19224"><path fill="#fff" d="M0 0h24v24H0z"/></clipPath></defs></svg><svg fill="none" viewBox="0 0 33 25" id="tick" xmlns="http://www.w3.org/2000/svg"><path d="M2 11.732L13.968 21 31 2" stroke="#fff" stroke-width="5"/></svg></svg>