<?xml version="1.0" encoding="utf-8"?><svg viewBox="0 0 32 32" xmlns="http://www.w3.org/2000/svg" xmlns:xlink="http://www.w3.org/1999/xlink"><style>:root>svg{display:none}:root>svg:target{display:block}</style><svg viewBox="0 0 20 20" id="angle-left" xmlns="http://www.w3.org/2000/svg"><path d="M12.5 16.25L6.25 10l6.25-6.25" stroke="currentColor" stroke-width="1.5" stroke-linecap="round" stroke-linejoin="round"/></svg><svg viewBox="0 0 20 21" id="angle-right" xmlns="http://www.w3.org/2000/svg"><path d="M7.5 4.25l6.25 6.25-6.25 6.25" stroke="currentColor" stroke-width="1.5" stroke-linecap="round" stroke-linejoin="round"/></svg><svg viewBox="0 0 16 16" id="arrow-right" xmlns="http://www.w3.org/2000/svg"><path d="M2.5 8h11M9 3.5L13.5 8 9 12.5" stroke="currentColor" stroke-width="1.5" stroke-linecap="round" stroke-linejoin="round"/></svg><svg viewBox="0 0 32 32" id="check-circle" xmlns="http://www.w3.org/2000/svg"><path d="M6.813 25.188c-1.15-1.15-.388-3.563-.975-4.976C5.25 18.8 3 17.563 3 16c0-1.563 2.225-2.75 2.838-4.213.612-1.462-.176-3.825.974-4.975 1.15-1.15 3.563-.387 4.975-.974C13.2 5.25 14.438 3 16 3c1.563 0 2.75 2.225 4.212 2.838 1.463.612 3.826-.176 4.976.974s.387 3.563.975 4.975C26.75 13.2 29 14.438 29 16c0 1.563-2.225 2.75-2.837 4.212-.613 1.463.174 3.826-.976 4.976s-3.562.387-4.975.975C18.8 26.75 17.563 29 16 29c-1.563 0-2.75-2.225-4.213-2.837-1.462-.613-3.825.174-4.975-.976z"/><path d="M21.5 13l-7.338 7-3.662-3.5" stroke="currentColor" stroke-width="1.5" stroke-linecap="round" stroke-linejoin="round"/></svg><svg viewBox="0 0 20 20" id="close" xmlns="http://www.w3.org/2000/svg"><path d="M15.625 4.375l-11.25 11.25M15.625 15.625L4.375 4.375" stroke="currentColor" stroke-width="1.5" stroke-linecap="round" stroke-linejoin="round"/></svg><svg viewBox="0 0 20 20" id="eye" xmlns="http://www.w3.org/2000/svg"><path d="M19.32 9.75c-.023-.063-.687-1.531-2.156-3.008C15.204 4.79 12.727 3.75 10 3.75c-2.726 0-5.203 1.04-7.164 2.992C1.367 8.22.703 9.688.68 9.75a.617.617 0 000 .5c.023.063.687 1.531 2.156 3.008C4.797 15.21 7.274 16.25 10 16.25c2.727 0 5.203-1.04 7.164-2.992 1.469-1.477 2.133-2.945 2.156-3.008a.617.617 0 000-.5zM10 7.187a2.812 2.812 0 110 5.625 2.812 2.812 0 010-5.624z"/></svg><svg viewBox="0 0 20 20" id="favorite" xmlns="http://www.w3.org/2000/svg"><path d="M10.446 16.555l6.328-6.328c1.554-1.563 1.781-4.117.312-5.75a4.063 4.063 0 00-5.898-.164L10 5.508 8.977 4.477c-1.563-1.555-4.117-1.781-5.75-.313a4.063 4.063 0 00-.164 5.899l6.492 6.492a.633.633 0 00.89 0v0z" stroke="currentColor" stroke-width="1.5" stroke-linecap="round" stroke-linejoin="round"/></svg><svg viewBox="0 0 20 20" id="plus-circle" xmlns="http://www.w3.org/2000/svg"><path d="M10 17.5a7.5 7.5 0 100-15 7.5 7.5 0 000 15zM6.875 10h6.25M10 6.875v6.25" stroke="currentColor" stroke-width="1.5" stroke-linecap="round" stroke-linejoin="round"/></svg><svg viewBox="0 0 20 21" id="reddit" xmlns="http://www.w3.org/2000/svg"><path fill-rule="evenodd" clip-rule="evenodd" d="M20 10.38c0 5.523-4.477 10-10 10s-10-4.477-10-10 4.477-10 10-10 10 4.477 10 10zm-4.795-1.462c.807 0 1.462.655 1.462 1.462 0 .596-.363 1.111-.842 1.345.023.14.035.28.035.433 0 2.245-2.608 4.058-5.837 4.058-3.228 0-5.836-1.813-5.836-4.058 0-.152.012-.304.035-.445a1.463 1.463 0 01.596-2.795c.387 0 .75.164 1.007.41 1.005-.738 2.397-1.194 3.953-1.24l.737-3.486a.285.285 0 01.117-.164.291.291 0 01.198-.035l2.421.515c.164-.351.515-.585.924-.585.573 0 1.041.468 1.041 1.041s-.467 1.041-1.04 1.041a1.042 1.042 0 01-1.042-.994l-2.163-.456-.667 3.122c1.52.059 2.9.527 3.895 1.24.257-.257.608-.41 1.006-.41zM7.708 10.38c-.573 0-1.041.468-1.041 1.04 0 .574.468 1.042 1.04 1.042.574 0 1.042-.468 1.042-1.041S8.28 10.38 7.708 10.38zm2.304 4.55c.397 0 1.754-.047 2.467-.76a.3.3 0 00.024-.387.275.275 0 00-.386 0c-.456.445-1.404.609-2.094.609s-1.649-.164-2.093-.609a.275.275 0 00-.386 0 .275.275 0 000 .386c.702.702 2.07.76 2.468.76zm1.24-3.51c0 .574.467 1.042 1.04 1.042.574 0 1.041-.468 1.041-1.041s-.467-1.041-1.04-1.041c-.574 0-1.041.468-1.041 1.04z"/></svg><svg viewBox="0 0 21 20" id="search" xmlns="http://www.w3.org/2000/svg"><path d="M9.679 15.625a6.562 6.562 0 100-13.125 6.562 6.562 0 000 13.125zM14.32 13.703l3.796 3.797" stroke="currentColor" stroke-width="1.5" stroke-linecap="round" stroke-linejoin="round"/></svg><svg viewBox="0 0 20 21" id="twitter" xmlns="http://www.w3.org/2000/svg"><g clip-path="url(#kclip0_1_25624)"><path d="M6.292 18.505c7.545 0 11.673-6.253 11.673-11.673 0-.176-.004-.356-.012-.532A8.332 8.332 0 0020 4.176a8.09 8.09 0 01-2.355.645 4.125 4.125 0 001.804-2.27 8.248 8.248 0 01-2.605.996A4.108 4.108 0 009.85 7.29a11.654 11.654 0 01-8.456-4.284 4.108 4.108 0 001.27 5.475 4.108 4.108 0 01-1.86-.512v.051a4.102 4.102 0 003.293 4.024 4.078 4.078 0 01-1.851.07 4.111 4.111 0 003.831 2.851A8.23 8.23 0 010 16.662a11.64 11.64 0 006.292 1.843z"/></g><defs><clipPath id="kclip0_1_25624"><path transform="translate(0 .38)" d="M0 0h20v20H0z"/></clipPath></defs></svg><svg viewBox="0 0 20 20" id="user-circle" xmlns="http://www.w3.org/2000/svg"><path d="M10 17.5a7.5 7.5 0 100-15 7.5 7.5 0 000 15z" stroke="currentColor" stroke-width="1.5" stroke-linecap="round" stroke-linejoin="round"/><path d="M10 12.5a3.125 3.125 0 100-6.25 3.125 3.125 0 000 6.25zM4.984 15.579a5.625 5.625 0 0110.032 0" stroke="currentColor" stroke-width="1.5" stroke-linecap="round" stroke-linejoin="round"/></svg><svg viewBox="0 0 16 16" id="users" xmlns="http://www.w3.org/2000/svg"><path d="M5.5 10a3.25 3.25 0 100-6.5 3.25 3.25 0 000 6.5zM9.713 3.619c.287-.078.584-.118.881-.119a3.25 3.25 0 110 6.5M1 12.338a5.5 5.5 0 019 0M10.594 10a5.494 5.494 0 014.5 2.338" stroke="currentColor" stroke-width="1.5" stroke-linecap="round" stroke-linejoin="round"/></svg></svg>