<svg width="64" height="64" viewBox="0 0 64 64" fill="none" xmlns="http://www.w3.org/2000/svg">
<g filter="url(#filter0_d_41_16192)">
<path d="M45 33C45 34.3 44.0625 35.2875 43.2375 36.15C42.7625 36.6375 42.275 37.15 42.0875 37.5875C41.9 38.025 41.9125 38.675 41.9 39.3375C41.8875 40.55 41.8625 41.9375 40.9 42.9C39.9375 43.8625 38.55 43.8875 37.3375 43.9C36.675 43.9125 36 43.925 35.5875 44.0875C35.175 44.25 34.6375 44.7625 34.15 45.2375C33.2875 46.0625 32.3 47 31 47C29.7 47 28.7125 46.0625 27.85 45.2375C27.3625 44.7625 26.85 44.275 26.4125 44.0875C25.975 43.9 25.325 43.9125 24.6625 43.9C23.45 43.8875 22.0625 43.8625 21.1 42.9C20.1375 41.9375 20.1125 40.55 20.1 39.3375C20.0875 38.675 20.075 38 19.9125 37.5875C19.75 37.175 19.2375 36.6375 18.7625 36.15C17.9375 35.2875 17 34.3 17 33C17 31.7 17.9375 30.7125 18.7625 29.85C19.2375 29.3625 19.725 28.85 19.9125 28.4125C20.1 27.975 20.0875 27.325 20.1 26.6625C20.1125 25.45 20.1375 24.0625 21.1 23.1C22.0625 22.1375 23.45 22.1125 24.6625 22.1C25.325 22.0875 26 22.075 26.4125 21.9125C26.825 21.75 27.3625 21.2375 27.85 20.7625C28.7125 19.9375 29.7 19 31 19C32.3 19 33.2875 19.9375 34.15 20.7625C34.6375 21.2375 35.15 21.725 35.5875 21.9125C36.025 22.1 36.675 22.0875 37.3375 22.1C38.55 22.1125 39.9375 22.1375 40.9 23.1C41.8625 24.0625 41.8875 25.45 41.9 26.6625C41.9125 27.325 41.925 28 42.0875 28.4125C42.25 28.825 42.7625 29.3625 43.2375 29.85C44.0625 30.7125 45 31.7 45 33Z" fill="#71F36F"/>
<g filter="url(#filter1_d_41_16192)">
<path d="M43.6609 30.6984C43.6215 30.5272 43.5402 30.3684 43.4243 30.2363C43.3084 30.1041 43.1615 30.0028 42.9969 29.9414L35.3469 27.0727L37.2859 17.3375C37.3305 17.112 37.3017 16.8782 37.2037 16.6702C37.1057 16.4623 36.9437 16.2912 36.7414 16.182C36.5371 16.0734 36.3026 16.0353 36.0744 16.0737C35.8462 16.1121 35.6371 16.2249 35.4797 16.3945L20.6047 32.332C20.4828 32.4585 20.3946 32.6135 20.3482 32.7829C20.3018 32.9523 20.2987 33.1307 20.3391 33.3016C20.3806 33.4719 20.4627 33.6297 20.5783 33.7615C20.694 33.8933 20.8397 33.9952 21.0031 34.0586L28.6531 36.9274L26.7141 46.6625C26.6695 46.888 26.6983 47.1219 26.7963 47.3298C26.8943 47.5377 27.0563 47.7088 27.2586 47.818C27.4111 47.8949 27.5792 47.9358 27.75 47.9375C27.8943 47.9381 28.0372 47.909 28.1698 47.8518C28.3023 47.7947 28.4217 47.7108 28.5203 47.6055L43.3953 31.668C43.5172 31.5415 43.6054 31.3865 43.6518 31.2171C43.6982 31.0477 43.7013 30.8694 43.6609 30.6984V30.6984Z" fill="#FFCF25"/>
</g>
</g>
<defs>
<filter id="filter0_d_41_16192" x="0" y="0" width="64" height="64" filterUnits="userSpaceOnUse" color-interpolation-filters="sRGB">
<feFlood flood-opacity="0" result="BackgroundImageFix"/>
<feColorMatrix in="SourceAlpha" type="matrix" values="0 0 0 0 0 0 0 0 0 0 0 0 0 0 0 0 0 0 127 0" result="hardAlpha"/>
<feOffset/>
<feGaussianBlur stdDeviation="7.5"/>
<feColorMatrix type="matrix" values="0 0 0 0 0.443767 0 0 0 0 0.954167 0 0 0 0 0.433351 0 0 0 1 0"/>
<feBlend mode="normal" in2="BackgroundImageFix" result="effect1_dropShadow_41_16192"/>
<feBlend mode="normal" in="SourceGraphic" in2="effect1_dropShadow_41_16192" result="shape"/>
</filter>
<filter id="filter1_d_41_16192" x="0" y="0" width="64" height="64" filterUnits="userSpaceOnUse" color-interpolation-filters="sRGB">
<feFlood flood-opacity="0" result="BackgroundImageFix"/>
<feColorMatrix in="SourceAlpha" type="matrix" values="0 0 0 0 0 0 0 0 0 0 0 0 0 0 0 0 0 0 127 0" result="hardAlpha"/>
<feOffset/>
<feGaussianBlur stdDeviation="7.5"/>
<feColorMatrix type="matrix" values="0 0 0 0 1 0 0 0 0 0.811765 0 0 0 0 0.145098 0 0 0 1 0"/>
<feBlend mode="normal" in2="BackgroundImageFix" result="effect1_dropShadow_41_16192"/>
<feBlend mode="normal" in="SourceGraphic" in2="effect1_dropShadow_41_16192" result="shape"/>
</filter>
</defs>
</svg>
