<svg width="44" height="49" viewBox="0 0 44 49" fill="none" xmlns="http://www.w3.org/2000/svg">
<g filter="url(#filter0_d_41_15906)">
<path d="M28.8594 23.7344C28.8362 23.6336 28.7883 23.5402 28.7202 23.4625C28.652 23.3848 28.5656 23.3252 28.4688 23.2891L23.9688 21.6016L25.1094 15.875C25.1356 15.7424 25.1187 15.6048 25.061 15.4825C25.0034 15.3602 24.9081 15.2595 24.7891 15.1953C24.6689 15.1314 24.5309 15.109 24.3967 15.1316C24.2625 15.1542 24.1395 15.2205 24.0469 15.3203L15.2969 24.6953C15.2252 24.7697 15.1733 24.8609 15.146 24.9605C15.1187 25.0602 15.1169 25.1651 15.1406 25.2656C15.1651 25.3658 15.2134 25.4586 15.2814 25.5361C15.3494 25.6137 15.4351 25.6736 15.5313 25.7109L20.0313 27.3984L18.8906 33.125C18.8644 33.2576 18.8813 33.3952 18.939 33.5175C18.9966 33.6398 19.0919 33.7405 19.2109 33.8047C19.3006 33.8499 19.3995 33.874 19.5 33.875C19.5849 33.8754 19.669 33.8582 19.7469 33.8246C19.8249 33.791 19.8951 33.7417 19.9531 33.6797L28.7031 24.3047C28.7748 24.2303 28.8267 24.1391 28.854 24.0395C28.8813 23.9398 28.8831 23.8349 28.8594 23.7344V23.7344Z" fill="#FFCF25"/>
</g>
<defs>
<filter id="filter0_d_41_15906" x="-3" y="-0.5" width="50" height="50" filterUnits="userSpaceOnUse" color-interpolation-filters="sRGB">
<feFlood flood-opacity="0" result="BackgroundImageFix"/>
<feColorMatrix in="SourceAlpha" type="matrix" values="0 0 0 0 0 0 0 0 0 0 0 0 0 0 0 0 0 0 127 0" result="hardAlpha"/>
<feOffset/>
<feGaussianBlur stdDeviation="7.5"/>
<feColorMatrix type="matrix" values="0 0 0 0 1 0 0 0 0 0.811765 0 0 0 0 0.145098 0 0 0 1 0"/>
<feBlend mode="normal" in2="BackgroundImageFix" result="effect1_dropShadow_41_15906"/>
<feBlend mode="normal" in="SourceGraphic" in2="effect1_dropShadow_41_15906" result="shape"/>
</filter>
</defs>
</svg>
