<svg width="32" height="32" viewBox="0 0 32 32" fill="none" xmlns="http://www.w3.org/2000/svg">
<path d="M15.016 17.98C15.016 18.788 14.72 19.424 14.128 19.888C13.536 20.344 12.776 20.572 11.848 20.572C11.168 20.572 10.58 20.488 10.084 20.32C9.588 20.144 9.136 19.852 8.728 19.444L9.808 18.364C10.288 18.844 10.972 19.084 11.86 19.084C12.356 19.084 12.732 18.992 12.988 18.808C13.252 18.624 13.384 18.36 13.384 18.016C13.384 17.72 13.296 17.484 13.12 17.308C12.968 17.164 12.712 17.068 12.352 17.02L11.332 16.864C10.612 16.76 10.06 16.524 9.676 16.156C9.268 15.756 9.064 15.196 9.064 14.476C9.064 13.7 9.332 13.076 9.868 12.604C10.404 12.124 11.128 11.884 12.04 11.884C13.192 11.884 14.112 12.216 14.8 12.88L13.744 13.924C13.344 13.532 12.76 13.336 11.992 13.336C11.568 13.336 11.244 13.44 11.02 13.648C10.796 13.848 10.684 14.104 10.684 14.416C10.684 14.672 10.764 14.876 10.924 15.028C11.108 15.196 11.368 15.304 11.704 15.352L12.724 15.508C13.452 15.612 13.996 15.836 14.356 16.18C14.796 16.588 15.016 17.188 15.016 17.98ZM22.6938 14.344C22.7578 14.76 22.7898 15.388 22.7898 16.228C22.7898 17.068 22.7578 17.7 22.6938 18.124C22.6378 18.54 22.4898 18.916 22.2498 19.252C21.6498 20.084 20.7898 20.5 19.6698 20.5H16.5858V11.956H19.6698C20.7898 11.956 21.6498 12.372 22.2498 13.204C22.4898 13.54 22.6378 13.92 22.6938 14.344ZM21.0618 17.764C21.1018 17.46 21.1218 16.948 21.1218 16.228C21.1218 15.508 21.1018 14.996 21.0618 14.692C21.0218 14.388 20.9258 14.148 20.7738 13.972C20.4938 13.62 20.0778 13.444 19.5258 13.444H18.2538V19.012H19.5258C20.0778 19.012 20.4938 18.836 20.7738 18.484C20.9258 18.308 21.0218 18.068 21.0618 17.764Z" fill="#FEFEFE"/>
<rect x="0.5" y="0.5" width="31" height="31" rx="1.5" stroke="#FEFEFE"/>
</svg>
