<svg width="24" height="24" viewBox="0 0 24 24" fill="none" xmlns="http://www.w3.org/2000/svg">
<g clip-path="url(#clip0_1_19224)">
<path d="M22.2853 0H1.71469C0.769197 0 0 0.769197 0 1.71469V22.2853C0 23.2323 0.767684 24 1.71469 24H22.2853C23.2323 24 24 23.2323 24 22.2853V1.71469C24 0.769197 23.2308 0 22.2853 0ZM22.4348 22.2853C22.4348 22.3677 22.3677 22.4348 22.2853 22.4348H1.71469C1.63215 22.4348 1.56521 22.3678 1.56521 22.2853V1.71469C1.56521 1.63215 1.63215 1.56521 1.71469 1.56521H22.2853C22.3677 1.56521 22.4348 1.63225 22.4348 1.71469V22.2853Z" fill="currentColor"/>
<path d="M15.252 10.5144C15.1083 10.2888 14.8595 10.1523 14.592 10.1523C14.3246 10.1523 14.0757 10.2889 13.932 10.5144L10.1575 16.438L8.22552 13.4061C8.08183 13.1806 7.83296 13.0441 7.56552 13.0441C7.29808 13.0441 7.04921 13.1806 6.90552 13.4061L2.88335 19.7183C2.7298 19.9592 2.71978 20.2647 2.85721 20.5152C2.99463 20.7657 3.25764 20.9215 3.54334 20.9215H20.4568C20.7426 20.9215 21.0056 20.7658 21.1429 20.5152C21.2803 20.2647 21.2703 19.9592 21.1168 19.7183L15.252 10.5144ZM4.97003 19.3563L7.56552 15.2831L9.49746 18.3149C9.64114 18.5404 9.89001 18.6769 10.1575 18.6769C10.4249 18.6769 10.6738 18.5404 10.8175 18.3149L14.592 12.3913L19.0301 19.3563H4.97003Z" fill="currentColor"/>
<path d="M7.25218 10.3305C9.29473 10.3305 10.9565 8.66875 10.9565 6.62621C10.9565 4.58366 9.29473 2.92188 7.25218 2.92188C5.20964 2.92188 3.54785 4.58366 3.54785 6.62621C3.54785 8.66875 5.20964 10.3305 7.25218 10.3305ZM7.25218 4.48709C8.43167 4.48709 9.3913 5.44672 9.3913 6.62621C9.3913 7.8057 8.43167 8.76533 7.25218 8.76533C6.07269 8.76533 5.11306 7.8057 5.11306 6.62621C5.11306 5.44672 6.07269 4.48709 7.25218 4.48709Z" fill="currentColor"/>
</g>
<defs>
<clipPath id="clip0_1_19224">
<rect width="24" height="24" fill="white"/>
</clipPath>
</defs>
</svg>
